<?xml version="1.0" encoding="UTF-8"?>
<svg width="2805px" height="1300px" viewBox="0 0 2805 1300" version="1.1" xmlns="http://www.w3.org/2000/svg" xmlns:xlink="http://www.w3.org/1999/xlink">
    <title>logo full stacked</title>
    <defs>
        <polygon id="path-1" points="0.314060448 255.102725 437.707741 509.628627 872.974293 253.154869 437.707741 0.576824352"></polygon>
    </defs>
    <g id="logo-full-stacked" stroke="none" stroke-width="1" fill="none" fill-rule="evenodd">
        <g id="mesh-logo" transform="translate(279.000000, 120.000000)">
            <g id="dot-grid" transform="translate(67.695992, 709.009532)" fill="#B6E2D6" fill-rule="nonzero" stroke="#FFFFFF" stroke-width="4">
                <ellipse id="Oval-9" cx="65.110338" cy="81.3986351" rx="62.9622269" ry="33.7292248"></ellipse>
                <ellipse id="Oval-9" cx="389.921473" cy="276.277196" rx="62.9622269" ry="33.7292248"></ellipse>
                <ellipse id="Oval-9" cx="714.732607" cy="81.3905149" rx="62.9622269" ry="33.7292248"></ellipse>
                <ellipse id="Oval-9" cx="224.267794" cy="175.593864" rx="62.9622269" ry="33.7292248"></ellipse>
                <ellipse id="Oval-9" cx="555.575151" cy="175.585744" rx="62.9622269" ry="33.7292248"></ellipse>
                <ellipse id="Oval-9" cx="389.921473" cy="113.871628" rx="62.9622269" ry="33.7292248"></ellipse>
                <ellipse id="Oval-9" cx="224.267794" cy="35.9250763" rx="62.9622269" ry="33.7292248"></ellipse>
                <ellipse id="Oval-9" cx="555.575151" cy="35.916956" rx="62.9622269" ry="33.7292248"></ellipse>
            </g>
            <polygon id="Path-8" fill="#1128A9" fill-rule="nonzero" points="18.494482 635.525784 455.888163 890.051685 891.154714 633.577927 455.888163 380.999883"></polygon>
            <g id="mesh" transform="translate(18.180422, 250.000060)">
                <polygon id="Path-8" fill="#87E3CB" fill-rule="nonzero" points="0.314060448 255.102725 437.707741 509.628627 872.974293 253.154869 437.707741 0.576824352"></polygon>
                <mask id="mask-2" fill="white">
                    <use xlink:href="#path-1"></use>
                </mask>
                <use id="Path-8" fill="#C8FCEE" fill-rule="nonzero" xlink:href="#path-1"></use>
                <line x1="-274.472506" y1="440.043045" x2="1079.55576" y2="-354.322605" id="Path-2" stroke="#6ED3B9" stroke-width="45" fill-rule="nonzero" mask="url(#mask-2)"></line>
                <line x1="-313.429146" y1="618.430822" x2="1040.59912" y2="-175.934828" id="Path-2" stroke="#6ED3B9" stroke-width="45" fill-rule="nonzero" mask="url(#mask-2)"></line>
                <line x1="37.4001492" y1="564.914489" x2="1391.42842" y2="-229.451161" id="Path-2" stroke="#6ED3B9" stroke-width="45" fill-rule="nonzero" mask="url(#mask-2)"></line>
                <line x1="29.6199799" y1="731.409748" x2="1383.64825" y2="-62.9559023" id="Path-2" stroke="#6ED3B9" stroke-width="45" fill-rule="nonzero" mask="url(#mask-2)"></line>
                <line x1="203.895408" y1="790.87234" x2="1557.92367" y2="-3.49330984" id="Path-2" stroke="#6ED3B9" stroke-width="45" fill-rule="nonzero" mask="url(#mask-2)"></line>
                <line x1="554.724703" y1="737.356007" x2="1908.75297" y2="-57.009643" id="Path-2" stroke="#6ED3B9" stroke-width="45" fill-rule="nonzero" mask="url(#mask-2)"></line>
                <line x1="548.778444" y1="903.851266" x2="1902.80671" y2="109.485616" id="Path-2" stroke="#6ED3B9" stroke-width="45" fill-rule="nonzero" mask="url(#mask-2)"></line>
                <g id="lines" mask="url(#mask-2)" fill-rule="nonzero" stroke="#6ED3B9" stroke-width="45">
                    <g transform="translate(806.249750, 227.587220) scale(-1, 1) translate(-806.249750, -227.587220) translate(-305.250250, -401.912780)" id="Path-2">
                        <line x1="6.54627103" y1="794.385751" x2="1360.57454" y2="0.020101099"></line>
                        <line x1="0.600011789" y1="972.773528" x2="1354.62828" y2="178.407878"></line>
                        <line x1="351.429307" y1="919.257195" x2="1705.45757" y2="124.891545"></line>
                        <line x1="345.483048" y1="1085.75245" x2="1699.51131" y2="291.386804"></line>
                        <line x1="517.924566" y1="1145.21505" x2="1871.95283" y2="350.849396"></line>
                        <line x1="868.753861" y1="1091.69871" x2="2222.78213" y2="297.333063"></line>
                        <line x1="862.807602" y1="1258.19397" x2="2216.83587" y2="463.828322"></line>
                    </g>
                </g>
            </g>
            <g id="shapes" transform="translate(129.637675, 68.695502)" fill-rule="nonzero">
                <polygon id="Path-4" fill="#1128A9" points="0.833910035 416.790392 0.833910035 62.3259453 265.83391 569.255762"></polygon>
                <polygon id="Path-26" fill="#569CF5" points="325.83391 438.925408 545.858629 312.468376 545.858629 0.656299551 325.83391 123.602441"></polygon>
                <g id="orange" transform="translate(414.362325, 140.925408)" fill="#FB8143">
                    <polygon id="Path-25" points="-2.14612124e-14 245.023614 178.007865 349.772512 178.007865 106.338847 -2.14612124e-14 -6.21320795e-13"></polygon>
                </g>
                <polygon id="Path-26" fill="#569CF5" style="mix-blend-mode: overlay;" points="325.83391 438.925408 545.858629 312.468376 545.858629 0.656299551 325.83391 123.602441"></polygon>
            </g>
        </g>
        <path d="M1558.4775,469.92 C1572.60583,469.92 1585.83583,467.225 1598.1675,461.835 C1610.49917,456.445 1621.32,448.952083 1630.63,439.35625 C1639.94,429.760417 1647.22875,418.612917 1652.49625,405.91375 C1657.76375,393.214583 1660.3975,379.596667 1660.3975,365.06 C1660.3975,350.441667 1657.76375,336.803333 1652.49625,324.145 C1647.22875,311.486667 1639.94,300.359583 1630.63,290.76375 C1621.32,281.167917 1610.49917,273.675 1598.1675,268.285 C1585.83583,262.895 1572.60583,260.2 1558.4775,260.2 C1544.34917,260.2 1531.11917,262.895 1518.7875,268.285 C1506.45583,273.675 1495.635,281.167917 1486.325,290.76375 C1477.015,300.359583 1469.72625,311.486667 1464.45875,324.145 C1459.19125,336.803333 1456.5575,350.441667 1456.5575,365.06 C1456.5575,379.596667 1459.19125,393.214583 1464.45875,405.91375 C1469.72625,418.612917 1477.015,429.760417 1486.325,439.35625 C1495.635,448.952083 1506.45583,456.445 1518.7875,461.835 C1531.11917,467.225 1544.34917,469.92 1558.4775,469.92 Z M1558.4775,439.05 C1548.9225,439.05 1540.04125,437.192083 1531.83375,433.47625 C1523.62625,429.760417 1516.48042,424.574583 1510.39625,417.91875 C1504.31208,411.262917 1499.59583,403.443333 1496.2475,394.46 C1492.89917,385.476667 1491.225,375.676667 1491.225,365.06 C1491.225,354.443333 1492.89917,344.643333 1496.2475,335.66 C1499.59583,326.676667 1504.31208,318.857083 1510.39625,312.20125 C1516.48042,305.545417 1523.62625,300.359583 1531.83375,296.64375 C1540.04125,292.927917 1548.9225,291.07 1558.4775,291.07 C1568.11417,291.07 1577.03625,292.927917 1585.24375,296.64375 C1593.45125,300.359583 1600.59708,305.545417 1606.68125,312.20125 C1612.76542,318.857083 1617.48167,326.676667 1620.83,335.66 C1624.17833,344.643333 1625.8525,354.443333 1625.8525,365.06 C1625.8525,375.676667 1624.17833,385.476667 1620.83,394.46 C1617.48167,403.443333 1612.76542,411.262917 1606.68125,417.91875 C1600.59708,424.574583 1593.45125,429.760417 1585.24375,433.47625 C1577.03625,437.192083 1568.11417,439.05 1558.4775,439.05 Z M1743.82036,529.7 L1743.82036,445.91 C1749.29202,453.505 1756.11119,459.405417 1764.27786,463.61125 C1772.44452,467.817083 1781.26452,469.92 1790.73786,469.92 C1802.57952,469.92 1813.17577,467.000417 1822.52661,461.16125 C1831.87744,455.322083 1839.26827,447.38 1844.69911,437.335 C1850.12994,427.29 1852.84536,415.938333 1852.84536,403.28 C1852.84536,390.458333 1850.10952,379.045417 1844.63786,369.04125 C1839.16619,359.037083 1831.71411,351.135833 1822.28161,345.3375 C1812.84911,339.539167 1802.08952,336.64 1790.00286,336.64 C1780.44786,336.64 1771.62786,338.66125 1763.54286,342.70375 C1755.45786,346.74625 1748.88369,352.401667 1743.82036,359.67 L1743.82036,359.67 L1743.82036,340.56 L1713.31786,340.56 L1713.31786,529.7 L1743.82036,529.7 Z M1782.04036,443.8275 C1774.52702,443.8275 1767.80994,442.092083 1761.88911,438.62125 C1755.96827,435.150417 1751.33369,430.3525 1747.98536,424.2275 C1744.63702,418.1025 1742.96286,411.12 1742.96286,403.28 C1742.96286,395.44 1744.65744,388.4575 1748.04661,382.3325 C1751.43577,376.2075 1756.07036,371.409583 1761.95036,367.93875 C1767.83036,364.467917 1774.52702,362.7325 1782.04036,362.7325 C1789.55369,362.7325 1796.20952,364.467917 1802.00786,367.93875 C1807.80619,371.409583 1812.39994,376.227917 1815.78911,382.39375 C1819.17827,388.559583 1820.87286,395.5625 1820.87286,403.4025 C1820.87286,411.2425 1819.19869,418.204583 1815.85036,424.28875 C1812.50202,430.372917 1807.90827,435.150417 1802.06911,438.62125 C1796.22994,442.092083 1789.55369,443.8275 1782.04036,443.8275 Z M1964.052,469.92 C1977.037,469.92 1988.81741,467.122917 1999.39325,461.52875 C2009.96908,455.934583 2018.23783,448.155833 2024.1995,438.1925 L2024.1995,438.1925 L2002.027,426.8 C1997.20866,433.088333 1991.83908,437.76375 1985.91825,440.82625 C1979.99741,443.88875 1973.2395,445.42 1965.6445,445.42 C1957.64116,445.42 1950.55658,443.807083 1944.39075,440.58125 C1938.22491,437.355417 1933.427,432.86375 1929.997,427.10625 C1926.567,421.34875 1924.852,414.6725 1924.852,407.0775 L1924.852,407.0775 L2027.017,407.0775 C2027.262,405.444167 2027.42533,404.280417 2027.507,403.58625 C2027.58866,402.892083 2027.6295,402.014167 2027.6295,400.9525 C2027.6295,388.130833 2024.87325,376.901667 2019.36075,367.265 C2013.84825,357.628333 2006.17158,350.115 1996.33075,344.725 C1986.48991,339.335 1975.03616,336.64 1961.9695,336.64 C1952.4145,336.64 1943.51283,338.355 1935.2645,341.785 C1927.01616,345.215 1919.78866,349.9925 1913.582,356.1175 C1907.37533,362.2425 1902.51616,369.3475 1899.0045,377.4325 C1895.49283,385.5175 1893.737,394.215 1893.737,403.525 C1893.737,416.101667 1896.81991,427.4125 1902.98575,437.4575 C1909.15158,447.5025 1917.52241,455.424167 1928.09825,461.2225 C1938.67408,467.020833 1950.65866,469.92 1964.052,469.92 Z M1997.372,387.9675 L1926.1995,387.9675 C1927.01616,382.169167 1929.017,377.1875 1932.202,373.0225 C1935.387,368.8575 1939.51116,365.631667 1944.5745,363.345 C1949.63783,361.058333 1955.39533,359.915 1961.847,359.915 C1967.972,359.915 1973.52533,361.07875 1978.507,363.40625 C1983.48866,365.73375 1987.61283,368.98 1990.8795,373.145 C1994.14616,377.31 1996.31033,382.250833 1997.372,387.9675 L1997.372,387.9675 Z M2108.08036,466 L2108.08036,389.07 C2108.08036,383.843333 2109.30536,379.08625 2111.75536,374.79875 C2114.20536,370.51125 2117.71702,367.08125 2122.29036,364.50875 C2126.86369,361.93625 2132.29452,360.65 2138.58286,360.65 C2147.72952,360.65 2154.89577,363.487917 2160.08161,369.16375 C2165.26744,374.839583 2167.86036,382.904167 2167.86036,393.3575 L2167.86036,393.3575 L2167.86036,466 L2198.36286,466 L2198.36286,386.9875 C2198.36286,376.6975 2196.36202,367.795833 2192.36036,360.2825 C2188.35869,352.769167 2182.74411,346.950417 2175.51661,342.82625 C2168.28911,338.702083 2159.85702,336.64 2150.22036,336.64 C2140.91036,336.64 2132.64161,338.41625 2125.41411,341.96875 C2118.18661,345.52125 2112.40869,350.074167 2108.08036,355.6275 L2108.08036,355.6275 L2108.08036,340.56 L2077.57786,340.56 L2077.57786,466 L2108.08036,466 Z M1522.585,747.675 C1562.03,747.675 1598.78,730.77 1598.78,682.505 C1598.78,656.045 1574.035,636.935 1551.495,627.38 C1528.465,617.58 1509.355,609.495 1509.355,598.225 C1509.355,587.2 1517.685,580.095 1533.365,580.095 C1554.19,580.095 1574.28,594.06 1574.28,594.06 L1592.9,557.31 C1592.9,557.31 1566.93,538.2 1530.18,538.2 C1497.595,538.2 1464.275,562.21 1464.275,599.94 C1464.275,621.01 1478.485,639.875 1502.74,651.88 C1526.75,663.885 1548.31,670.5 1548.31,685.2 C1548.31,704.065 1529.2,705.045 1519.155,705.045 C1496.615,705.045 1469.665,682.26 1469.665,682.26 L1446.635,720.97 C1446.635,720.97 1475.3,747.675 1522.585,747.675 Z M1693.97611,747.675 C1721.90611,747.675 1744.93611,738.61 1759.14611,714.845 L1727.78611,699.165 C1717.25111,710.435 1711.12611,713.13 1697.16111,713.13 C1686.13611,713.13 1669.96611,706.515 1669.96611,687.16 L1761.10611,687.16 C1761.35111,685.69 1761.35111,682.995 1761.35111,681.28 C1761.35111,637.18 1732.19611,614.64 1693.97611,614.64 C1656.00111,614.64 1624.88611,644.53 1624.88611,681.28 C1624.88611,717.785 1656.00111,747.675 1693.97611,747.675 Z M1718.96611,663.15 L1671.19111,663.15 C1671.92611,651.635 1680.25611,642.815 1695.20111,642.815 C1707.94111,642.815 1717.00611,649.92 1718.96611,663.15 Z M1838.17222,744 L1838.17222,677.85 C1838.17222,674.665 1841.35722,652.37 1863.89722,652.37 C1878.35222,652.37 1886.43722,659.23 1886.43722,659.23 L1904.56722,622.48 C1904.56722,622.48 1893.29722,614.64 1877.12722,614.64 C1852.38222,614.64 1838.66222,636.445 1838.66222,636.445 L1838.17222,636.445 L1838.17222,618.315 L1794.80722,618.315 L1794.80722,744 L1838.17222,744 Z M2007.60333,744 L2074.97833,618.315 L2023.52833,618.315 L1992.90333,686.67 L1962.27833,618.315 L1910.82833,618.315 L1978.20333,744 L2007.60333,744 Z M2120.68444,592.1 C2134.89444,592.1 2146.40944,580.585 2146.40944,566.375 C2146.40944,552.165 2134.89444,540.65 2120.68444,540.65 C2106.47444,540.65 2094.95944,552.165 2094.95944,566.375 C2094.95944,580.585 2106.47444,592.1 2120.68444,592.1 Z M2141.75444,744 L2141.75444,618.315 L2098.38944,618.315 L2098.38944,744 L2141.75444,744 Z M2246.50555,747.675 C2274.43555,747.675 2288.64555,736.405 2288.64555,736.405 L2273.94555,706.27 C2273.94555,706.27 2265.86055,712.15 2252.87555,712.15 C2236.46055,712.15 2222.98555,698.43 2222.98555,681.035 C2222.98555,663.885 2236.46055,650.165 2252.87555,650.165 C2265.86055,650.165 2273.94555,656.045 2273.94555,656.045 L2288.64555,626.4 C2288.64555,626.4 2274.43555,614.64 2246.50555,614.64 C2210.00055,614.64 2176.92555,644.53 2176.92555,681.525 C2176.92555,718.275 2210.24555,747.675 2246.50555,747.675 Z M2379.92166,747.675 C2407.85166,747.675 2430.88166,738.61 2445.09166,714.845 L2413.73166,699.165 C2403.19666,710.435 2397.07166,713.13 2383.10666,713.13 C2372.08166,713.13 2355.91166,706.515 2355.91166,687.16 L2447.05166,687.16 C2447.29666,685.69 2447.29666,682.995 2447.29666,681.28 C2447.29666,637.18 2418.14166,614.64 2379.92166,614.64 C2341.94666,614.64 2310.83166,644.53 2310.83166,681.28 C2310.83166,717.785 2341.94666,747.675 2379.92166,747.675 Z M2404.91166,663.15 L2357.13666,663.15 C2357.87166,651.635 2366.20166,642.815 2381.14666,642.815 C2393.88666,642.815 2402.95166,649.92 2404.91166,663.15 Z M1490.98,1022 L1500.535,902.195 L1501.76,902.195 L1543.165,1020.775 L1570.605,1020.775 L1612.01,902.195 L1613.235,902.195 L1622.79,1022 L1668.85,1022 L1650.72,819.875 L1601.72,819.875 L1556.885,936.495 L1512.05,819.875 L1463.05,819.875 L1444.92,1022 L1490.98,1022 Z M1761.10611,1025.675 C1789.03611,1025.675 1812.06611,1016.61 1826.27611,992.845 L1794.91611,977.165 C1784.38111,988.435 1778.25611,991.13 1764.29111,991.13 C1753.26611,991.13 1737.09611,984.515 1737.09611,965.16 L1828.23611,965.16 C1828.48111,963.69 1828.48111,960.995 1828.48111,959.28 C1828.48111,915.18 1799.32611,892.64 1761.10611,892.64 C1723.13111,892.64 1692.01611,922.53 1692.01611,959.28 C1692.01611,995.785 1723.13111,1025.675 1761.10611,1025.675 Z M1786.09611,941.15 L1738.32111,941.15 C1739.05611,929.635 1747.38611,920.815 1762.33111,920.815 C1775.07111,920.815 1784.13611,927.92 1786.09611,941.15 Z M1900.89222,1025.675 C1926.61722,1025.675 1960.42722,1019.795 1960.42722,982.8 C1960.42722,957.075 1938.86722,947.765 1922.20722,942.62 C1911.42722,939.19 1902.60722,937.23 1902.60722,930.615 C1902.60722,924.735 1906.52722,923.02 1916.08222,923.02 C1929.31222,923.02 1944.01222,930.86 1944.01222,930.86 L1958.22222,902.44 C1958.22222,902.44 1940.33722,892.64 1916.08222,892.64 C1883.00722,892.64 1861.20222,907.34 1861.20222,933.065 C1861.20222,951.93 1873.94222,960.75 1886.68222,967.365 C1900.89222,974.715 1914.61222,975.45 1914.61222,984.515 C1914.61222,992.845 1907.26222,993.58 1901.13722,993.58 C1887.17222,993.58 1870.02222,979.125 1870.02222,979.125 L1852.38222,1008.77 C1852.38222,1008.77 1870.51222,1025.675 1900.89222,1025.675 Z M2038.96333,1022 L2038.96333,950.95 C2038.96333,938.455 2051.70333,926.45 2064.68833,926.45 C2078.65333,926.45 2087.22833,938.455 2087.22833,950.95 L2087.22833,1022 L2130.59333,1022 L2130.59333,939.19 C2130.59333,904.155 2098.49833,892.64 2075.46833,892.64 C2061.74833,892.64 2049.25333,899.745 2039.45333,909.545 L2038.96333,909.545 L2038.96333,811.3 L1995.59833,811.3 L1995.59833,1022 L2038.96333,1022 Z" id="OpenServiceMesh" fill="#1128A9" fill-rule="nonzero"></path>
    </g>
</svg>