<svg height="1130" viewBox="0 0 1762 1130" width="1762" xmlns="http://www.w3.org/2000/svg" xmlns:xlink="http://www.w3.org/1999/xlink"><defs><path id="a" d="m0 0h1762v1130h-1762z"/><linearGradient id="b" x1="50%" x2="50%" y1="0%" y2="100%"><stop offset="0" stop-color="#fff"/><stop offset="1" stop-color="#fbf3f1"/></linearGradient><linearGradient id="c" x1="50%" x2="50%" y1="24.441795%" y2="100%"><stop offset="0" stop-color="#d6fff7"/><stop offset="1" stop-color="#9af2db"/></linearGradient><mask id="d" fill="#fff"><use fill="#fff" fill-rule="evenodd" xlink:href="#a"/></mask></defs><g fill="none"><use fill="#fff" xlink:href="#a"/><path d="m263.639886 1131.41166v-631.41166l1465.000004 903z" fill="url(#b)" mask="url(#d)" opacity=".561616" transform="matrix(-1 0 0 1 1992.279772 0)"/><path d="m1595.62635 375.114123-465.43951 276.106267-321.89279-182.73721-528.368269 233.50419" style="stroke-width:3;opacity:.3;stroke-linecap:round;stroke-linejoin:round;stroke-dasharray:20 1;stroke:url(#c);mask:url(#d)"/><path d="m1233.9284 481.920207 172.69309 100.492684 171.85325-101.261743-171.85325-99.723625z" fill="#e5fff8" mask="url(#d)"/><g fill="#b6e2d6" mask="url(#d)" opacity=".2" stroke="#fff" stroke-width="4"><g transform="translate(-384 449)"><ellipse cx="387.436614" cy="103.827323" rx="33.24271" ry="17.38349"/><ellipse cx="392.964184" cy="194.038902" rx="33.24271" ry="17.38349"/><ellipse cx="483.146636" cy="153.097473" rx="33.24271" ry="17.38349"/></g></g><g fill="#b6e2d6" mask="url(#d)" opacity=".2" stroke="#fff" stroke-width="4"><g transform="translate(686.62635 657.498001)"><ellipse cx="35.636605" cy="103.827323" rx="33.24271" ry="17.38349"/><ellipse cx="211.536609" cy="200.336866" rx="33.24271" ry="17.38349"/><ellipse cx="211.536609" cy="19.92083" rx="33.24271" ry="17.38349"/><ellipse cx="387.436614" cy="103.827323" rx="33.24271" ry="17.38349"/><ellipse cx="121.6677" cy="145.715072" rx="33.24271" ry="17.38349"/><ellipse cx="301.405519" cy="145.710666" rx="33.24271" ry="17.38349"/><ellipse cx="211.223066" cy="103.831728" rx="33.24271" ry="17.38349"/><ellipse cx="121.6677" cy="62.890299" rx="33.24271" ry="17.38349"/><ellipse cx="301.405519" cy="62.890299" rx="33.24271" ry="17.38349"/><ellipse cx="393.277727" cy="290.54404" rx="33.24271" ry="17.38349"/><ellipse cx="569.177732" cy="194.034497" rx="33.24271" ry="17.38349"/><ellipse cx="303.408817" cy="235.922246" rx="33.24271" ry="17.38349"/><ellipse cx="483.146636" cy="235.917841" rx="33.24271" ry="17.38349"/><ellipse cx="392.964184" cy="194.038902" rx="33.24271" ry="17.38349"/><ellipse cx="483.146636" cy="153.097473" rx="33.24271" ry="17.38349"/></g></g><ellipse cx="631.905374" cy="544.773822" fill="#c4fff0" mask="url(#d)" rx="31" ry="16"/></g></svg>