<svg height="766" viewBox="0 0 1004 766" width="1004" xmlns="http://www.w3.org/2000/svg"><path d="m114.4775 209.92c14.128333 0 27.358333-2.695 39.69-8.085s23.1525-12.882917 32.4625-22.47875 16.59875-20.743333 21.86625-33.4425 7.90125-26.317083 7.90125-40.85375c0-14.6183333-2.63375-28.2566667-7.90125-40.915s-12.55625-23.7854167-21.86625-33.38125-20.130833-17.08875-32.4625-22.47875-25.561667-8.085-39.69-8.085-27.3583333 2.695-39.69 8.085-23.1525 12.8829167-32.4625 22.47875-16.59875 20.7229167-21.86625 33.38125-7.90125 26.2966667-7.90125 40.915c0 14.536667 2.63375 28.154583 7.90125 40.85375s12.55625 23.846667 21.86625 33.4425 20.1308333 17.08875 32.4625 22.47875 25.561667 8.085 39.69 8.085zm0-30.87c-9.555 0-18.43625-1.857917-26.64375-5.57375s-15.3533333-8.901667-21.4375-15.5575-10.8004167-14.475417-14.14875-23.45875-5.0225-18.783333-5.0225-29.4c0-10.6166667 1.6741667-20.4166667 5.0225-29.4s8.0645833-16.8029167 14.14875-23.45875 13.23-11.8416667 21.4375-15.5575 17.08875-5.57375 26.64375-5.57375c9.636667 0 18.55875 1.8579167 26.76625 5.57375s15.353333 8.9016667 21.4375 15.5575 10.800417 14.4754167 14.14875 23.45875 5.0225 18.7833333 5.0225 29.4c0 10.616667-1.674167 20.416667-5.0225 29.4s-8.064583 16.802917-14.14875 23.45875-13.23 11.841667-21.4375 15.5575-17.129583 5.57375-26.76625 5.57375zm185.342857 90.65v-83.79c5.471667 7.595 12.290834 13.495417 20.4575 17.70125 8.166667 4.205833 16.986667 6.30875 26.46 6.30875 11.841667 0 22.437917-2.919583 31.78875-8.75875 9.350834-5.839167 16.741667-13.78125 22.1725-23.82625 5.430834-10.045 8.14625-21.396667 8.14625-34.055 0-12.821667-2.735833-24.234583-8.2075-34.23875-5.471666-10.0041667-12.92375-17.9054167-22.35625-23.70375s-20.192083-8.6975-32.27875-8.6975c-9.555 0-18.375 2.02125-26.46 6.06375s-14.659166 9.6979167-19.7225 16.96625v-19.11h-30.5025v189.14zm38.22-85.8725c-7.513333 0-14.230416-1.735417-20.15125-5.20625-5.920833-3.470833-10.555416-8.26875-13.90375-14.39375-3.348333-6.125-5.0225-13.1075-5.0225-20.9475s1.694584-14.8225 5.08375-20.9475c3.389167-6.125 8.02375-10.922917 13.90375-14.39375s12.576667-5.20625 20.09-5.20625c7.513334 0 14.169167 1.735417 19.9675 5.20625 5.798334 3.470833 10.392084 8.289167 13.78125 14.455 3.389167 6.165833 5.08375 13.16875 5.08375 21.00875s-1.674166 14.802083-5.0225 20.88625c-3.348333 6.084167-7.942083 10.861667-13.78125 14.3325-5.839166 3.470833-12.515416 5.20625-20.02875 5.20625zm182.011641 26.0925c12.985 0 24.765417-2.797083 35.34125-8.39125 10.575834-5.594167 18.844584-13.372917 24.80625-23.33625l-22.1725-11.3925c-4.818333 6.288333-10.187916 10.96375-16.10875 14.02625-5.920833 3.0625-12.67875 4.59375-20.27375 4.59375-8.003333 0-15.087916-1.612917-21.25375-4.83875-6.165833-3.225833-10.96375-7.7175-14.39375-13.475s-5.145-12.43375-5.145-20.02875h102.165c.245-1.633333.408334-2.797083.49-3.49125.081667-.694167.1225-1.572083.1225-2.63375 0-12.821667-2.75625-24.050833-8.26875-33.6875-5.5125-9.6366667-13.189166-17.15-23.03-22.54-9.840833-5.39-21.294583-8.085-34.36125-8.085-9.555 0-18.456666 1.715-26.705 5.145-8.248333 3.43-15.475833 8.2075-21.6825 14.3325-6.206666 6.125-11.065833 13.23-14.5775 21.315-3.511666 8.085-5.2675 16.7825-5.2675 26.0925 0 12.576667 3.082917 23.8875 9.24875 33.9325 6.165834 10.045 14.536667 17.966667 25.1125 23.765 10.575834 5.798333 22.560417 8.6975 35.95375 8.6975zm33.32-81.9525h-71.1725c.816667-5.798333 2.8175-10.78 6.0025-14.945s7.309167-7.390833 12.3725-9.6775c5.063334-2.286667 10.820834-3.43 17.2725-3.43 6.125 0 11.678334 1.16375 16.66 3.49125 4.981667 2.3275 9.105834 5.57375 12.3725 9.73875 3.266667 4.165 5.430834 9.105833 6.4925 14.8225zm110.70836 78.0325v-76.93c0-5.226667 1.225-9.98375 3.675-14.27125s5.961666-7.7175 10.535-10.29c4.573333-2.5725 10.004166-3.85875 16.2925-3.85875 9.146666 0 16.312916 2.837917 21.49875 8.51375 5.185833 5.675833 7.77875 13.740417 7.77875 24.19375v72.6425h30.5025v-79.0125c0-10.29-2.000834-19.191667-6.0025-26.705-4.001667-7.5133333-9.61625-13.3320833-16.84375-17.45625s-15.659584-6.18625-25.29625-6.18625c-9.31 0-17.57875 1.77625-24.80625 5.32875s-13.005417 8.1054167-17.33375 13.65875v-15.0675h-30.5025v125.44zm-585.495358 281.675c39.445 0 76.195-16.905 76.195-65.17 0-26.46-24.745-45.57-47.285-55.125-23.03-9.8-42.14-17.885-42.14-29.155 0-11.025 8.33-18.13 24.01-18.13 20.825 0 40.915 13.965 40.915 13.965l18.62-36.75s-25.97-19.11-62.72-19.11c-32.585 0-65.905 24.01-65.905 61.74 0 21.07 14.21 39.935 38.465 51.94 24.01 12.005 45.57 18.62 45.57 33.32 0 18.865-19.11 19.845-29.155 19.845-22.54 0-49.49-22.785-49.49-22.785l-23.03 38.71s28.665 26.705 75.95 26.705zm171.39111 0c27.93 0 50.96-9.065 65.17-32.83l-31.36-15.68c-10.535 11.27-16.66 13.965-30.625 13.965-11.025 0-27.195-6.615-27.195-25.97h91.14c.245-1.47.245-4.165.245-5.88 0-44.1-29.155-66.64-67.375-66.64-37.975 0-69.09 29.89-69.09 66.64 0 36.505 31.115 66.395 69.09 66.395zm24.99-84.525h-47.775c.735-11.515 9.065-20.335 24.01-20.335 12.74 0 21.805 7.105 23.765 20.335zm119.206111 80.85v-66.15c0-3.185 3.185-25.48 25.725-25.48 14.455 0 22.54 6.86 22.54 6.86l18.13-36.75s-11.27-7.84-27.44-7.84c-24.745 0-38.465 21.805-38.465 21.805h-.49v-18.13h-43.365v125.685zm169.43111 0 67.375-125.685h-51.45l-30.625 68.355-30.625-68.355h-51.45l67.375 125.685zm113.08111-151.9c14.21 0 25.725-11.515 25.725-25.725s-11.515-25.725-25.725-25.725-25.725 11.515-25.725 25.725 11.515 25.725 25.725 25.725zm21.07 151.9v-125.685h-43.365v125.685zm104.75111 3.675c27.93 0 42.14-11.27 42.14-11.27l-14.7-30.135s-8.085 5.88-21.07 5.88c-16.415 0-29.89-13.72-29.89-31.115 0-17.15 13.475-30.87 29.89-30.87 12.985 0 21.07 5.88 21.07 5.88l14.7-29.645s-14.21-11.76-42.14-11.76c-36.505 0-69.58 29.89-69.58 66.885 0 36.75 33.32 66.15 69.58 66.15zm133.416111 0c27.93 0 50.96-9.065 65.169998-32.83l-31.359998-15.68c-10.535 11.27-16.66 13.965-30.625 13.965-11.025 0-27.195-6.615-27.195-25.97h91.139998c.245-1.47.245-4.165.245-5.88 0-44.1-29.154998-66.64-67.374998-66.64-37.975 0-69.09 29.89-69.09 66.64 0 36.505 31.115 66.395 69.09 66.395zm24.99-84.525h-47.775c.735-11.515 9.065-20.335 24.01-20.335 12.74 0 21.805 7.105 23.765 20.335zm-913.931662 358.85 9.555-119.805h1.225l41.405 118.58h27.44l41.405-118.58h1.225l9.555 119.805h46.06l-18.13-202.125h-49l-44.835 116.62-44.835-116.62h-49l-18.13 202.125zm270.12611 3.675c27.93 0 50.96-9.065 65.17-32.83l-31.36-15.68c-10.535 11.27-16.66 13.965-30.625 13.965-11.025 0-27.195-6.615-27.195-25.97h91.14c.245-1.47.245-4.165.245-5.88 0-44.1-29.155-66.64-67.375-66.64-37.975 0-69.09 29.89-69.09 66.64 0 36.505 31.115 66.395 69.09 66.395zm24.99-84.525h-47.775c.735-11.515 9.065-20.335 24.01-20.335 12.74 0 21.805 7.105 23.765 20.335zm114.796111 84.525c25.725 0 59.535-5.88 59.535-42.875 0-25.725-21.56-35.035-38.22-40.18-10.78-3.43-19.6-5.39-19.6-12.005 0-5.88 3.92-7.595 13.475-7.595 13.23 0 27.93 7.84 27.93 7.84l14.21-28.42s-17.885-9.8-42.14-9.8c-33.075 0-54.88 14.7-54.88 40.425 0 18.865 12.74 27.685 25.48 34.3 14.21 7.35 27.93 8.085 27.93 17.15 0 8.33-7.35 9.065-13.475 9.065-13.965 0-31.115-14.455-31.115-14.455l-17.64 29.645s18.13 16.905 48.51 16.905zm138.07111-3.675v-71.05c0-12.495 12.74-24.5 25.725-24.5 13.965 0 22.54 12.005 22.54 24.5v71.05h43.365v-82.81c0-35.035-32.095-46.55-55.125-46.55-13.72 0-26.215 7.105-36.015 16.905h-.49v-98.245h-43.365v210.7z" fill="#1128a9"/></svg>