<?xml version="1.0" encoding="UTF-8"?>
<svg width="942px" height="944px" viewBox="0 0 942 944" version="1.1" xmlns="http://www.w3.org/2000/svg" xmlns:xlink="http://www.w3.org/1999/xlink">
    <title>center stack</title>
    <defs>
        <polygon id="path-1" points="0.187843702 152.580309 261.798781 304.815612 522.137454 151.415271 261.798781 0.345006263"></polygon>
    </defs>
    <g id="center-stack" stroke="none" stroke-width="1" fill="none" fill-rule="evenodd">
        <path d="M154.7085,799.008 C158.3415,799.008 161.7435,798.315 164.9145,796.929 C168.0855,795.543 170.868,793.61625 173.262,791.14875 C175.656,788.68125 177.53025,785.81475 178.88475,782.54925 C180.23925,779.28375 180.9165,775.782 180.9165,772.044 C180.9165,768.285 180.23925,764.778 178.88475,761.523 C177.53025,758.268 175.656,755.40675 173.262,752.93925 C170.868,750.47175 168.0855,748.545 164.9145,747.159 C161.7435,745.773 158.3415,745.08 154.7085,745.08 C151.0755,745.08 147.6735,745.773 144.5025,747.159 C141.3315,748.545 138.549,750.47175 136.155,752.93925 C133.761,755.40675 131.88675,758.268 130.53225,761.523 C129.17775,764.778 128.5005,768.285 128.5005,772.044 C128.5005,775.782 129.17775,779.28375 130.53225,782.54925 C131.88675,785.81475 133.761,788.68125 136.155,791.14875 C138.549,793.61625 141.3315,795.543 144.5025,796.929 C147.6735,798.315 151.0755,799.008 154.7085,799.008 Z M154.7085,791.07 C152.2515,791.07 149.96775,790.59225 147.85725,789.63675 C145.74675,788.68125 143.90925,787.34775 142.34475,785.63625 C140.78025,783.92475 139.5675,781.914 138.7065,779.604 C137.8455,777.294 137.415,774.774 137.415,772.044 C137.415,769.314 137.8455,766.794 138.7065,764.484 C139.5675,762.174 140.78025,760.16325 142.34475,758.45175 C143.90925,756.74025 145.74675,755.40675 147.85725,754.45125 C149.96775,753.49575 152.2515,753.018 154.7085,753.018 C157.1865,753.018 159.48075,753.49575 161.59125,754.45125 C163.70175,755.40675 165.53925,756.74025 167.10375,758.45175 C168.66825,760.16325 169.881,762.174 170.742,764.484 C171.603,766.794 172.0335,769.314 172.0335,772.044 C172.0335,774.774 171.603,777.294 170.742,779.604 C169.881,781.914 168.66825,783.92475 167.10375,785.63625 C165.53925,787.34775 163.70175,788.68125 161.59125,789.63675 C159.48075,790.59225 157.1865,791.07 154.7085,791.07 Z M202.368092,814.38 L202.368092,792.834 C203.775092,794.787 205.528592,796.30425 207.628592,797.38575 C209.728592,798.46725 211.996592,799.008 214.432592,799.008 C217.477592,799.008 220.202342,798.25725 222.606842,796.75575 C225.011342,795.25425 226.911842,793.212 228.308342,790.629 C229.704842,788.046 230.403092,785.127 230.403092,781.872 C230.403092,778.575 229.699592,775.64025 228.292592,773.06775 C226.885592,770.49525 224.969342,768.4635 222.543842,766.9725 C220.118342,765.4815 217.351592,764.736 214.243592,764.736 C211.786592,764.736 209.518592,765.25575 207.439592,766.29525 C205.360592,767.33475 203.670092,768.789 202.368092,770.658 L202.368092,770.658 L202.368092,765.744 L194.524592,765.744 L194.524592,814.38 L202.368092,814.38 Z M212.196092,792.2985 C210.264092,792.2985 208.536842,791.85225 207.014342,790.95975 C205.491842,790.06725 204.300092,788.8335 203.439092,787.2585 C202.578092,785.6835 202.147592,783.888 202.147592,781.872 C202.147592,779.856 202.583342,778.0605 203.454842,776.4855 C204.326342,774.9105 205.518092,773.67675 207.030092,772.78425 C208.542092,771.89175 210.264092,771.4455 212.196092,771.4455 C214.128092,771.4455 215.839592,771.89175 217.330592,772.78425 C218.821592,773.67675 220.002842,774.91575 220.874342,776.50125 C221.745842,778.08675 222.181592,779.8875 222.181592,781.9035 C222.181592,783.9195 221.751092,785.70975 220.890092,787.27425 C220.029092,788.83875 218.847842,790.06725 217.346342,790.95975 C215.844842,791.85225 214.128092,792.2985 212.196092,792.2985 Z M258.999085,799.008 C262.338085,799.008 265.367335,798.28875 268.086835,796.85025 C270.806335,795.41175 272.932585,793.4115 274.465585,790.8495 L274.465585,790.8495 L268.764085,787.92 C267.525085,789.537 266.144335,790.73925 264.621835,791.52675 C263.099335,792.31425 261.361585,792.708 259.408585,792.708 C257.350585,792.708 255.528835,792.29325 253.943335,791.46375 C252.357835,790.63425 251.124085,789.47925 250.242085,787.99875 C249.360085,786.51825 248.919085,784.8015 248.919085,782.8485 L248.919085,782.8485 L275.190085,782.8485 C275.253085,782.4285 275.295085,782.12925 275.316085,781.95075 C275.337085,781.77225 275.347585,781.5465 275.347585,781.2735 C275.347585,777.9765 274.638835,775.089 273.221335,772.611 C271.803835,770.133 269.829835,768.201 267.299335,766.815 C264.768835,765.429 261.823585,764.736 258.463585,764.736 C256.006585,764.736 253.717585,765.177 251.596585,766.059 C249.475585,766.941 247.617085,768.1695 246.021085,769.7445 C244.425085,771.3195 243.175585,773.1465 242.272585,775.2255 C241.369585,777.3045 240.918085,779.541 240.918085,781.935 C240.918085,785.169 241.710835,788.0775 243.296335,790.6605 C244.881835,793.2435 247.034335,795.2805 249.753835,796.7715 C252.473335,798.2625 255.555085,799.008 258.999085,799.008 Z M267.567085,777.9345 L249.265585,777.9345 C249.475585,776.4435 249.990085,775.1625 250.809085,774.0915 C251.628085,773.0205 252.688585,772.191 253.990585,771.603 C255.292585,771.015 256.773085,770.721 258.432085,770.721 C260.007085,770.721 261.435085,771.02025 262.716085,771.61875 C263.997085,772.21725 265.057585,773.052 265.897585,774.123 C266.737585,775.194 267.294085,776.4645 267.567085,777.9345 L267.567085,777.9345 Z M296.034949,798 L296.034949,778.218 C296.034949,776.874 296.349949,775.65075 296.979949,774.54825 C297.609949,773.44575 298.512949,772.56375 299.688949,771.90225 C300.864949,771.24075 302.261449,770.91 303.878449,770.91 C306.230449,770.91 308.073199,771.63975 309.406699,773.09925 C310.740199,774.55875 311.406949,776.6325 311.406949,779.3205 L311.406949,779.3205 L311.406949,798 L319.250449,798 L319.250449,777.6825 C319.250449,775.0365 318.735949,772.7475 317.706949,770.8155 C316.677949,768.8835 315.234199,767.38725 313.375699,766.32675 C311.517199,765.26625 309.348949,764.736 306.870949,764.736 C304.476949,764.736 302.350699,765.19275 300.492199,766.10625 C298.633699,767.01975 297.147949,768.1905 296.034949,769.6185 L296.034949,769.6185 L296.034949,765.744 L288.191449,765.744 L288.191449,798 L296.034949,798 Z M369.384877,798.945 C379.527877,798.945 388.977877,794.598 388.977877,782.187 C388.977877,775.383 382.614877,770.469 376.818877,768.012 C370.896877,765.492 365.982877,763.413 365.982877,760.515 C365.982877,757.68 368.124877,755.853 372.156877,755.853 C377.511877,755.853 382.677877,759.444 382.677877,759.444 L387.465877,749.994 C387.465877,749.994 380.787877,745.08 371.337877,745.08 C362.958877,745.08 354.390877,751.254 354.390877,760.956 C354.390877,766.374 358.044877,771.225 364.281877,774.312 C370.455877,777.399 375.999877,779.1 375.999877,782.88 C375.999877,787.731 371.085877,787.983 368.502877,787.983 C362.706877,787.983 355.776877,782.124 355.776877,782.124 L349.854877,792.078 C349.854877,792.078 357.225877,798.945 369.384877,798.945 Z M413.456877,798.945 C420.638877,798.945 426.560877,796.614 430.214877,790.503 L422.150877,786.471 C419.441877,789.369 417.866877,790.062 414.275877,790.062 C411.440877,790.062 407.282877,788.361 407.282877,783.384 L430.718877,783.384 C430.781877,783.006 430.781877,782.313 430.781877,781.872 C430.781877,770.532 423.284877,764.736 413.456877,764.736 C403.691877,764.736 395.690877,772.422 395.690877,781.872 C395.690877,791.259 403.691877,798.945 413.456877,798.945 Z M419.882877,777.21 L407.597877,777.21 C407.786877,774.249 409.928877,771.981 413.771877,771.981 C417.047877,771.981 419.378877,773.808 419.882877,777.21 Z M450.535876,798 L450.535876,780.99 C450.535876,780.171 451.354876,774.438 457.150876,774.438 C460.867876,774.438 462.946876,776.202 462.946876,776.202 L467.608876,766.752 C467.608876,766.752 464.710876,764.736 460.552876,764.736 C454.189876,764.736 450.661876,770.343 450.661876,770.343 L450.535876,770.343 L450.535876,765.681 L439.384876,765.681 L439.384876,798 L450.535876,798 Z M494.103876,798 L511.428876,765.681 L498.198876,765.681 L490.323876,783.258 L482.448876,765.681 L469.218876,765.681 L486.543876,798 L494.103876,798 Z M523.181876,758.94 C526.835876,758.94 529.796876,755.979 529.796876,752.325 C529.796876,748.671 526.835876,745.71 523.181876,745.71 C519.527876,745.71 516.566876,748.671 516.566876,752.325 C516.566876,755.979 519.527876,758.94 523.181876,758.94 Z M528.599876,798 L528.599876,765.681 L517.448876,765.681 L517.448876,798 L528.599876,798 Z M555.535876,798.945 C562.717876,798.945 566.371876,796.047 566.371876,796.047 L562.591876,788.298 C562.591876,788.298 560.512876,789.81 557.173876,789.81 C552.952876,789.81 549.487876,786.282 549.487876,781.809 C549.487876,777.399 552.952876,773.871 557.173876,773.871 C560.512876,773.871 562.591876,775.383 562.591876,775.383 L566.371876,767.76 C566.371876,767.76 562.717876,764.736 555.535876,764.736 C546.148876,764.736 537.643876,772.422 537.643876,781.935 C537.643876,791.385 546.211876,798.945 555.535876,798.945 Z M589.842876,798.945 C597.024876,798.945 602.946876,796.614 606.600876,790.503 L598.536876,786.471 C595.827876,789.369 594.252876,790.062 590.661876,790.062 C587.826876,790.062 583.668876,788.361 583.668876,783.384 L607.104876,783.384 C607.167876,783.006 607.167876,782.313 607.167876,781.872 C607.167876,770.532 599.670876,764.736 589.842876,764.736 C580.077876,764.736 572.076876,772.422 572.076876,781.872 C572.076876,791.259 580.077876,798.945 589.842876,798.945 Z M596.268876,777.21 L583.983876,777.21 C584.172876,774.249 586.314876,771.981 590.157876,771.981 C593.433876,771.981 595.764876,773.808 596.268876,777.21 Z M645.667875,798 L648.124875,767.193 L648.439875,767.193 L659.086875,797.685 L666.142875,797.685 L676.789875,767.193 L677.104875,767.193 L679.561875,798 L691.405875,798 L686.743875,746.025 L674.143875,746.025 L662.614875,776.013 L651.085875,746.025 L638.485875,746.025 L633.823875,798 L645.667875,798 Z M715.128875,798.945 C722.310875,798.945 728.232875,796.614 731.886875,790.503 L723.822875,786.471 C721.113875,789.369 719.538875,790.062 715.947875,790.062 C713.112875,790.062 708.954875,788.361 708.954875,783.384 L732.390875,783.384 C732.453875,783.006 732.453875,782.313 732.453875,781.872 C732.453875,770.532 724.956875,764.736 715.128875,764.736 C705.363875,764.736 697.362875,772.422 697.362875,781.872 C697.362875,791.259 705.363875,798.945 715.128875,798.945 Z M721.554875,777.21 L709.269875,777.21 C709.458875,774.249 711.600875,771.981 715.443875,771.981 C718.719875,771.981 721.050875,773.808 721.554875,777.21 Z M766.382875,787.92 C766.382875,781.305 760.838875,778.911 756.554875,777.588 C753.782875,776.706 751.514875,776.202 751.514875,774.501 C751.514875,772.989 752.522875,772.548 754.979875,772.548 C758.381875,772.548 762.161875,774.564 762.161875,774.564 L765.815875,767.256 C765.815875,767.256 761.216875,764.736 754.979875,764.736 C746.474875,764.736 740.867875,768.516 740.867875,775.131 C740.867875,779.982 744.143875,782.25 747.419875,783.951 C751.073875,785.841 754.601875,786.03 754.601875,788.361 C754.601875,790.503 752.711875,790.692 751.136875,790.692 C747.545875,790.692 743.135875,786.975 743.135875,786.975 L738.599875,794.598 C738.599875,794.598 743.261875,798.945 751.073875,798.945 C757.688875,798.945 766.382875,797.433 766.382875,787.92 Z M786.577874,798 L786.577874,779.73 C786.577874,776.517 789.853874,773.43 793.192874,773.43 C796.783874,773.43 798.988874,776.517 798.988874,779.73 L798.988874,798 L810.139874,798 L810.139874,776.706 C810.139874,767.697 801.886874,764.736 795.964874,764.736 C792.436874,764.736 789.223874,766.563 786.703874,769.083 L786.577874,769.083 L786.577874,743.82 L775.426874,743.82 L775.426874,798 L786.577874,798 Z" id="OpenServiceMesh" fill="#1128A9" fill-rule="nonzero"></path>
        <g id="mesh-logo" transform="translate(199.000000, 70.000000)">
            <g id="dot-grid" transform="translate(40.489867, 424.067965)" fill="#B6E2D6" fill-rule="nonzero" stroke="#FFFFFF" stroke-width="4">
                <ellipse id="Oval-9" cx="38.9433531" cy="48.6855988" rx="36.8547659" ry="19.3701213"></ellipse>
                <ellipse id="Oval-9" cx="233.217183" cy="165.24504" rx="36.8547659" ry="19.3701213"></ellipse>
                <ellipse id="Oval-9" cx="427.491012" cy="48.6807419" rx="36.8547659" ry="19.3701213"></ellipse>
                <ellipse id="Oval-9" cx="134.13753" cy="105.025009" rx="36.8547659" ry="19.3701213"></ellipse>
                <ellipse id="Oval-9" cx="332.296836" cy="105.020152" rx="36.8547659" ry="19.3701213"></ellipse>
                <ellipse id="Oval-9" cx="233.217183" cy="68.1081249" rx="36.8547659" ry="19.3701213"></ellipse>
                <ellipse id="Oval-9" cx="134.13753" cy="21.4872626" rx="36.8547659" ry="19.3701213"></ellipse>
                <ellipse id="Oval-9" cx="332.296836" cy="21.4824058" rx="36.8547659" ry="19.3701213"></ellipse>
            </g>
            <polygon id="Path-8" fill="#1128A9" fill-rule="nonzero" points="11.0617939 380.116365 272.672731 532.351668 533.011405 378.951326 272.672731 227.881062"></polygon>
            <g id="mesh" transform="translate(10.873950, 149.528338)">
                <polygon id="Path-8" fill="#87E3CB" fill-rule="nonzero" points="0.187843702 152.580309 261.798781 304.815612 522.137454 151.415271 261.798781 0.345006263"></polygon>
                <mask id="mask-2" fill="white">
                    <use xlink:href="#path-1"></use>
                </mask>
                <use id="Path-8" fill="#C8FCEE" fill-rule="nonzero" xlink:href="#path-1"></use>
                <line x1="-164.165631" y1="263.195557" x2="645.696559" y2="-211.92503" id="Path-2" stroke="#6ED3B9" stroke-width="33" fill-rule="nonzero" mask="url(#mask-2)"></line>
                <line x1="-187.466112" y1="369.891643" x2="622.396078" y2="-105.228944" id="Path-2" stroke="#6ED3B9" stroke-width="33" fill-rule="nonzero" mask="url(#mask-2)"></line>
                <line x1="22.3695232" y1="337.882817" x2="832.231713" y2="-137.23777" id="Path-2" stroke="#6ED3B9" stroke-width="33" fill-rule="nonzero" mask="url(#mask-2)"></line>
                <line x1="17.7161012" y1="437.46583" x2="827.578291" y2="-37.6547566" id="Path-2" stroke="#6ED3B9" stroke-width="33" fill-rule="nonzero" mask="url(#mask-2)"></line>
                <line x1="121.952536" y1="473.031192" x2="931.814726" y2="-2.08939475" id="Path-2" stroke="#6ED3B9" stroke-width="33" fill-rule="nonzero" mask="url(#mask-2)"></line>
                <line x1="331.788172" y1="441.022366" x2="1141.65036" y2="-34.0982204" id="Path-2" stroke="#6ED3B9" stroke-width="33" fill-rule="nonzero" mask="url(#mask-2)"></line>
                <line x1="328.231635" y1="540.60538" x2="1138.09382" y2="65.4847928" id="Path-2" stroke="#6ED3B9" stroke-width="33" fill-rule="nonzero" mask="url(#mask-2)"></line>
                <g id="lines" mask="url(#mask-2)" fill-rule="nonzero" stroke="#6ED3B9" stroke-width="33">
                    <g transform="translate(482.031454, 136.110658) scale(-1, 1) translate(-482.031454, -136.110658) translate(-182.968546, -240.389342)" id="Path-2">
                        <line x1="3.91541116" y1="475.13261" x2="813.777601" y2="0.0120227328"></line>
                        <line x1="0.358874976" y1="581.828695" x2="810.221065" y2="106.708108"></line>
                        <line x1="210.19451" y1="549.819869" x2="1020.0567" y2="74.6992827"></line>
                        <line x1="206.637974" y1="649.402883" x2="1016.50016" y2="174.282296"></line>
                        <line x1="309.777523" y1="684.968245" x2="1119.63971" y2="209.847658"></line>
                        <line x1="519.613158" y1="652.959419" x2="1329.47535" y2="177.838832"></line>
                        <line x1="516.056622" y1="752.542432" x2="1325.91881" y2="277.421845"></line>
                    </g>
                </g>
            </g>
            <g id="shapes" transform="translate(77.538006, 41.087687)" fill-rule="nonzero">
                <polygon id="Path-4" fill="#1128A9" points="0.498772606 249.287838 0.498772606 37.2779711 158.998773 340.47939"></polygon>
                <polygon id="Path-26" fill="#569CF5" points="194.885565 262.527084 326.485256 186.891463 326.485256 0.39254143 194.885565 73.9282525"></polygon>
                <g id="orange" transform="translate(247.835579, 84.289348)" fill="#FB8143">
                    <polygon id="Path-25" points="-1.28362346e-14 146.55186 106.468855 209.203559 106.468855 63.6026691 -1.28362346e-14 -3.71620173e-13"></polygon>
                </g>
                <polygon id="Path-26" fill="#569CF5" style="mix-blend-mode: overlay;" points="194.885565 262.527084 326.485256 186.891463 326.485256 0.39254143 194.885565 73.9282525"></polygon>
            </g>
        </g>
    </g>
</svg>