<svg height="917" viewBox="0 0 1329 917" width="1329" xmlns="http://www.w3.org/2000/svg" xmlns:xlink="http://www.w3.org/1999/xlink"><defs><path id="a" d="m.16740014 135.974566 233.13908486 135.667108 232.005284-136.705352-232.005284-134.62886374z"/><mask id="b" fill="#fff"><use fill="#fff" fill-rule="evenodd" xlink:href="#a"/></mask></defs><g fill="none" fill-rule="evenodd"><path d="m0 0h1329v917h-1329z" fill="#fff"/><g fill-rule="nonzero"><path d="m190.032 781.536c5.536 0 10.72-1.056 15.552-3.168s9.072-5.048 12.72-8.808 6.504-8.128 8.568-13.104 3.096-10.312 3.096-16.008c0-5.728-1.032-11.072-3.096-16.032s-4.92-9.32-8.568-13.08-7.888-6.696-12.72-8.808-10.016-3.168-15.552-3.168-10.72 1.056-15.552 3.168-9.072 5.048-12.72 8.808-6.504 8.12-8.568 13.08-3.096 10.304-3.096 16.032c0 5.696 1.032 11.032 3.096 16.008s4.92 9.344 8.568 13.104 7.888 6.696 12.72 8.808 10.016 3.168 15.552 3.168zm0-12.096c-3.744 0-7.224-.728-10.44-2.184s-6.016-3.488-8.4-6.096-4.232-5.672-5.544-9.192-1.968-7.36-1.968-11.52.656-8 1.968-11.52 3.16-6.584 5.544-9.192 5.184-4.64 8.4-6.096 6.696-2.184 10.44-2.184c3.776 0 7.272.728 10.488 2.184s6.016 3.488 8.4 6.096 4.232 5.672 5.544 9.192 1.968 7.36 1.968 11.52-.656 8-1.968 11.52-3.16 6.584-5.544 9.192-5.184 4.64-8.4 6.096-6.712 2.184-10.488 2.184zm72.62414 35.52v-32.832c2.144 2.976 4.816 5.288 8.016 6.936s6.656 2.472 10.368 2.472c4.64 0 8.792-1.144 12.456-3.432s6.56-5.4 8.688-9.336 3.192-8.384 3.192-13.344c0-5.024-1.072-9.496-3.216-13.416s-5.064-7.016-8.76-9.288-7.912-3.408-12.648-3.408c-3.744 0-7.2.792-10.368 2.376s-5.744 3.8-7.728 6.648v-7.488h-11.952v74.112zm14.976-33.648c-2.944 0-5.576-.68-7.896-2.04s-4.136-3.24-5.448-5.64-1.968-5.136-1.968-8.208.664-5.808 1.992-8.208 3.144-4.28 5.448-5.64 4.928-2.04 7.872-2.04 5.552.68 7.824 2.04 4.072 3.248 5.4 5.664 1.992 5.16 1.992 8.232-.656 5.8-1.968 8.184-3.112 4.256-5.4 5.616-4.904 2.04-7.848 2.04zm71.318847 10.224c5.088 0 9.704-1.096 13.848-3.288s7.384-5.24 9.72-9.144l-8.688-4.464c-1.888 2.464-3.992 4.296-6.312 5.496s-4.968 1.8-7.944 1.8c-3.136 0-5.912-.632-8.328-1.896s-4.296-3.024-5.64-5.28-2.016-4.872-2.016-7.848h40.032c.096-.64.16-1.096.192-1.368s.048-.616.048-1.032c0-5.024-1.08-9.424-3.24-13.2s-5.168-6.72-9.024-8.832-8.344-3.168-13.464-3.168c-3.744 0-7.232.672-10.464 2.016s-6.064 3.216-8.496 5.616-4.336 5.184-5.712 8.352-2.064 6.576-2.064 10.224c0 4.928 1.208 9.36 3.624 13.296s5.696 7.04 9.84 9.312 8.84 3.408 14.088 3.408zm13.056-32.112h-27.888c.32-2.272 1.104-4.224 2.352-5.856s2.864-2.896 4.848-3.792 4.24-1.344 6.768-1.344c2.4 0 4.576.456 6.528 1.368s3.568 2.184 4.848 3.816 2.128 3.568 2.544 5.808zm43.379602 30.576v-30.144c0-2.048.48-3.912 1.44-5.592s2.336-3.024 4.128-4.032 3.92-1.512 6.384-1.512c3.584 0 6.392 1.112 8.424 3.336s3.048 5.384 3.048 9.48v28.464h11.952v-30.96c0-4.032-.784-7.52-2.352-10.464s-3.768-5.224-6.6-6.84-6.136-2.424-9.912-2.424c-3.648 0-6.888.696-9.72 2.088s-5.096 3.176-6.792 5.352v-5.904h-11.952v49.152zm111.771319 1.44c15.456 0 29.856-6.624 29.856-25.536 0-10.368-9.696-17.856-18.528-21.6-9.024-3.84-16.512-7.008-16.512-11.424 0-4.32 3.264-7.104 9.408-7.104 8.16 0 16.032 5.472 16.032 5.472l7.296-14.4-.015011-.010929c-.439342-.318173-10.480989-7.477071-24.560989-7.477071-12.768 0-25.824 9.408-25.824 24.192 0 8.256 5.568 15.648 15.072 20.352 9.408 4.704 17.856 7.296 17.856 13.056 0 7.392-7.488 7.776-11.424 7.776-8.832 0-19.392-8.928-19.392-8.928l-9.024 15.168s11.232 10.464 29.76 10.464zm67.157333 0c10.944 0 19.968-3.552 25.536-12.864l-12.288-6.144c-4.128 4.416-6.528 5.472-12 5.472-4.32 0-10.656-2.592-10.656-10.176h35.712c.096-.576.096-1.632.096-2.304 0-17.28-11.424-26.112-26.4-26.112-14.88 0-27.072 11.712-27.072 26.112 0 14.304 12.192 26.016 27.072 26.016zm9.792-33.12h-18.72c.288-4.512 3.552-7.968 9.408-7.968 4.992 0 8.544 2.784 9.312 7.968zm46.709333 31.68v-25.92c0-1.248 1.248-9.984 10.08-9.984 5.664 0 8.832 2.688 8.832 2.688l7.104-14.4s-4.416-3.072-10.752-3.072c-9.696 0-15.072 8.544-15.072 8.544h-.192v-7.104h-16.992v49.248zm66.389333 0 26.4-49.248h-20.16l-12 26.784-12-26.784h-20.16l26.4 49.248zm44.309333-59.52c5.568 0 10.08-4.512 10.08-10.08s-4.512-10.08-10.08-10.08-10.08 4.512-10.08 10.08 4.512 10.08 10.08 10.08zm8.256 59.52v-49.248h-16.992v49.248zm41.045333 1.44c10.944 0 16.512-4.416 16.512-4.416l-5.76-11.808s-3.168 2.304-8.256 2.304c-6.432 0-11.712-5.376-11.712-12.192 0-6.72 5.28-12.096 11.712-12.096 5.088 0 8.256 2.304 8.256 2.304l5.76-11.616s-5.568-4.608-16.512-4.608c-14.304 0-27.264 11.712-27.264 26.208 0 14.4 13.056 25.92 27.264 25.92zm52.277333 0c10.944 0 19.968-3.552 25.536-12.864l-12.288-6.144c-4.128 4.416-6.528 5.472-12 5.472-4.32 0-10.656-2.592-10.656-10.176h35.712c.096-.576.096-1.632.096-2.304 0-17.28-11.424-26.112-26.4-26.112-14.88 0-27.072 11.712-27.072 26.112 0 14.304 12.192 26.016 27.072 26.016zm9.792-33.12h-18.72c.288-4.512 3.552-7.968 9.408-7.968 4.992 0 8.544 2.784 9.312 7.968zm75.274666 31.68 3.744-46.944h.48l16.224 46.464h10.752l16.224-46.464h.48l3.744 46.944h18.047998l-7.104-79.2h-19.199998l-17.568 45.696-17.568-45.696h-19.2l-7.104 79.2zm105.845328 1.44c10.944 0 19.968-3.552 25.536-12.864l-12.288-6.144c-4.128 4.416-6.528 5.472-12 5.472-4.32 0-10.656-2.592-10.656-10.176h35.712c.096-.576.096-1.632.096-2.304 0-17.28-11.424-26.112-26.4-26.112-14.88 0-27.072 11.712-27.072 26.112 0 14.304 12.192 26.016 27.072 26.016zm9.792-33.12h-18.72c.288-4.512 3.552-7.968 9.408-7.968 4.992 0 8.544 2.784 9.312 7.968zm68.30934 16.32c0-10.08-8.448-13.728-14.976-15.744-4.224-1.344-7.68-2.112-7.68-4.704 0-2.304 1.536-2.976 5.28-2.976 5.184 0 10.944 3.072 10.944 3.072l5.568-11.136s-7.008-3.84-16.512-3.84c-12.96 0-21.504 5.76-21.504 15.84 0 7.392 4.992 10.848 9.984 13.44 5.568 2.88 10.944 3.168 10.944 6.72 0 3.264-2.88 3.552-5.28 3.552-5.472 0-12.192-5.664-12.192-5.664l-6.912 11.616s7.104 6.624 19.008 6.624c10.08 0 23.328-2.304 23.328-16.8zm30.77333 15.36v-27.84c0-4.896 4.992-9.6 10.08-9.6 5.472 0 8.832 4.704 8.832 9.6v27.84h16.992v-32.448c0-13.728-12.576-18.24-21.6-18.24-5.376 0-10.272 2.784-14.112 6.624h-.192v-38.496h-16.992v82.56z" fill="#1128a9"/><g transform="translate(145 90)"><g fill="#b6e2d6" stroke="#fff" stroke-width="4"><ellipse cx="70.78828" cy="421.302466" rx="32.626093" ry="17.044351"/><ellipse cx="243.918743" cy="525.176416" rx="32.626093" ry="17.044351"/><ellipse cx="417.049206" cy="421.298138" rx="32.626093" ry="17.044351"/><ellipse cx="155.622207" cy="471.510301" rx="32.626093" ry="17.044351"/><ellipse cx="332.215279" cy="471.505972" rx="32.626093" ry="17.044351"/><ellipse cx="243.918743" cy="438.611184" rx="32.626093" ry="17.044351"/><ellipse cx="155.622207" cy="397.064202" rx="32.626093" ry="17.044351"/><ellipse cx="332.215279" cy="397.059873" rx="32.626093" ry="17.044351"/></g><path d="m9.85790783 338.747234 233.13908417 135.667108 232.005285-136.705352-232.005285-134.628864z" fill="#1128a9"/><g transform="translate(9.690508 133.254749)"><path d="m.16740014 135.974566 233.13908486 135.667108 232.005284-136.705352-232.005284-134.62886374z" fill="#87e3cb"/><use fill="#c8fcee" xlink:href="#a"/><g stroke="#6ed3b9" stroke-width="35"><path d="m-146.299025 234.551246 721.722614-423.41188" mask="url(#b)"/><path d="m-167.063649 329.635297 721.722614-423.41188" mask="url(#b)"/><path d="m19.934985 301.110081 721.722614-423.411879" mask="url(#b)"/><path d="m15.788008 389.855196 721.722614-423.41188" mask="url(#b)"/><path d="m108.6801 421.549879 721.722613-423.411879" mask="url(#b)"/><path d="m295.678733 393.024664 721.722617-423.411879" mask="url(#b)"/><path d="m292.509265 481.769778 721.722615-423.411879" mask="url(#b)"/><g mask="url(#b)"><g transform="matrix(-1 0 0 1 1022.196801 -214.227095)"><path d="m3.489286 423.422594 721.722614-423.41188"/><path d="m.319818 518.506645 721.722613-423.41188"/><path d="m187.318451 489.981429 721.722614-423.411879"/><path d="m184.148983 578.726544 721.722614-423.41188"/><path d="m276.063566 610.421227 721.722613-423.411879"/><path d="m463.0622 581.896012 721.72261-423.411879"/><path d="m459.892731 670.641126 721.722609-423.411879"/></g></g></g></g><g transform="translate(69.099327 36.615999)"><path d="m.44448978 222.157143v-188.9362382l141.25000022 270.2031572z" fill="#1128a9"/><path d="m173.675622 233.955524 117.277327-67.403984v-166.20171996l-117.277327 65.53261326z" fill="#569cf5"/><path d="m0 130.602209 94.8815508 55.83314v-129.754737l-94.8815508-56.680612z" fill="#fb8143" transform="translate(220.862937 75.115901)"/><path d="m173.675622 233.955524 117.277327-67.403984v-166.20171996l-117.277327 65.53261326z" fill="#569cf5"/></g></g></g></g></svg>