<svg height="258" viewBox="0 0 2493 258" width="2493" xmlns="http://www.w3.org/2000/svg"><path d="m95.8285714 201.792857c13.2839286 0 25.7232146-2.533928 37.3178576-7.601786 11.594642-5.067857 21.76875-12.112946 30.522321-21.135267 8.753571-9.022322 15.606696-19.503572 20.559375-31.44375 4.952679-11.940179 7.429018-24.744197 7.429018-38.412054 0-13.7446429-2.476339-26.5678571-7.429018-38.4696429-4.952679-11.9017857-11.805804-22.3638392-20.559375-31.3861607-8.753571-9.0223214-18.927679-16.0674107-30.522321-21.1352678-11.594643-5.06785717-24.033929-7.60178574-37.3178576-7.60178574-13.2839285 0-25.7232143 2.53392857-37.3178571 7.60178574-11.5946429 5.0678571-21.76875 12.1129464-30.5223214 21.1352678-8.7535715 9.0223215-15.6066965 19.484375-20.55937504 31.3861607-4.95267857 11.9017858-7.42901786 24.725-7.42901786 38.4696429 0 13.667857 2.47633929 26.471875 7.42901786 38.412054 4.95267854 11.940178 11.80580354 22.421428 20.55937504 31.44375 8.7535714 9.022321 18.9276785 16.06741 30.5223214 21.135267 11.5946428 5.067858 24.0339286 7.601786 37.3178571 7.601786zm0-29.025c-8.9839285 0-17.334375-1.746875-25.0513393-5.240625-7.7169642-3.49375-14.4357142-8.369643-20.15625-14.627678-5.7205357-6.258036-10.1549107-13.610268-13.303125-22.056697-3.1482142-8.446428-4.7223214-17.660714-4.7223214-27.642857 0-9.9821429 1.5741072-19.1964286 4.7223214-27.6428571 3.1482143-8.4464286 7.5825893-15.7986608 13.303125-22.0566965 5.7205358-6.2580357 12.4392858-11.1339285 20.15625-14.6276785 7.7169643-3.49375 16.0674108-5.240625 25.0513393-5.240625 9.0607146 0 17.4495536 1.746875 25.1665176 5.240625 7.716965 3.49375 14.435715 8.3696428 20.15625 14.6276785 5.720536 6.2580357 10.154911 13.6102679 13.303125 22.0566965 3.148215 8.4464285 4.722322 17.6607142 4.722322 27.6428571 0 9.982143-1.574107 19.196429-4.722322 27.642857-3.148214 8.446429-7.582589 15.798661-13.303125 22.056697-5.720535 6.258035-12.439285 11.133928-20.15625 14.627678-7.716964 3.49375-16.105803 5.240625-25.1665176 5.240625zm174.2655146 85.232143v-78.782143c5.144643 7.141072 11.55625 12.688839 19.234822 16.643304 7.678571 3.954464 15.971428 5.931696 24.878571 5.931696 11.133929 0 21.096875-2.745089 29.888839-8.235268 8.791965-5.490178 15.741072-12.957589 20.847322-22.402232s7.659375-20.117857 7.659375-32.019643c0-12.055357-2.572322-22.78616-7.716965-32.19241-5.144642-9.4062504-12.151339-16.8352683-21.020089-22.287054s-18.985268-8.1776786-30.349553-8.1776786c-8.983929 0-17.276786 1.9004465-24.878572 5.7013393-7.601786 3.8008929-13.783036 9.1183036-18.54375 15.9522322v-17.9678572h-28.679464v177.8357143zm35.935714-80.740179c-7.064285 0-13.37991-1.631696-18.946875-4.895089-5.566964-3.263393-9.924553-7.774553-13.072767-13.533482-3.148215-5.758929-4.722322-12.324107-4.722322-19.695536 0-7.371428 1.593304-13.936607 4.779911-19.695535 3.186607-5.758929 7.544196-10.27009 13.072768-13.533483 5.528571-3.263392 11.825-4.895089 18.889285-4.895089 7.064286 0 13.322322 1.631697 18.774108 4.895089 5.451785 3.263393 9.770982 7.79375 12.957589 13.591072 3.186607 5.797321 4.779911 12.381696 4.779911 19.753125 0 7.371428-1.574108 13.917411-4.722322 19.637946-3.148214 5.720536-7.467411 10.2125-12.957589 13.475893-5.490179 3.263393-11.767411 4.895089-18.831697 4.895089zm171.133394 24.533036c12.208929 0 23.285268-2.629911 33.229018-7.889732s17.718304-12.573661 23.323661-21.941518l-20.847321-10.711607c-4.530358 5.9125-9.579018 10.308482-15.145983 13.187946-5.566964 2.879465-11.920982 4.319197-19.062053 4.319197-7.525 0-14.186161-1.516518-19.983482-4.549554-5.797322-3.033035-10.308482-7.25625-13.533482-12.669643-3.225-5.413392-4.8375-11.690625-4.8375-18.831696h96.058928c.230357-1.535714.383929-2.629911.460714-3.282589.076786-.652679.115179-1.478125.115179-2.47634 0-12.055357-2.591518-22.613392-7.774554-31.674107-5.183035-9.060714-12.400892-16.1249997-21.653571-21.1928569-9.252679-5.0678571-20.021875-7.6017857-32.307589-7.6017857-8.983929 0-17.353572 1.6125-25.108929 4.8375s-14.550893 7.7169643-20.386607 13.4758929c-5.835714 5.7589287-10.404464 12.4392857-13.70625 20.0410717-3.301786 7.601785-4.952679 15.779464-4.952679 24.533035 0 11.825 2.898661 22.459822 8.695983 31.904465 5.797321 9.444643 13.667857 16.892857 23.611607 22.344643 9.94375 5.451785 21.212053 8.177678 33.80491 8.177678zm31.328572-77.054464h-66.91875c.767857-5.451786 2.649107-10.135714 5.64375-14.051786 2.994643-3.916071 6.872321-6.949107 11.633036-9.099107 4.760714-2.15 10.174107-3.225 16.240178-3.225 5.758929 0 10.980357 1.0941964 15.664286 3.282589 4.683928 2.188393 8.561607 5.240625 11.633036 9.156697 3.071428 3.916071 5.10625 8.561607 6.104464 13.936607zm104.091679 73.36875v-72.332143c0-4.914286 1.151786-9.387054 3.455357-13.418304s5.605357-7.25625 9.905357-9.675 9.40625-3.6281246 15.31875-3.6281246c8.6 0 15.337947 2.6683036 20.213839 8.0049106 4.875893 5.336607 7.31384 12.919197 7.31384 22.747768v68.300893h28.679464v-74.290179c0-9.675-1.88125-18.044643-5.64375-25.1089283-3.7625-7.0642857-9.041518-12.5352678-15.837054-16.4129464-6.795535-3.8776786-14.72366-5.8165179-23.784375-5.8165179-8.753571 0-16.528125 1.6700893-23.32366 5.0102679-6.795536 3.3401786-12.228125 7.6209821-16.297768 12.8424107v-14.1669643h-28.679464v117.9428573zm268.201266 3.455357c37.0875 0 71.641072-15.894643 71.641072-61.275 0-24.878571-23.266072-42.8464286-44.458929-51.8303571-21.653571-9.2142858-39.621428-16.8160715-39.621428-27.4125 0-10.3660715 7.832142-17.0464286 22.575-17.0464286 19.580357 0 38.469642 13.1303571 38.469642 13.1303571l17.507143-34.5535714s-24.417857-17.96785714-58.971428-17.96785714c-30.6375 0-61.966072 22.57500004-61.966072 58.05000004 0 19.8107142 13.360715 37.5482141 36.166072 48.8357141 22.575 11.2875 42.846428 17.507143 42.846428 31.328572 0 17.7375-17.967857 18.658928-27.4125 18.658928-21.192857 0-46.532143-21.423214-46.532143-21.423214l-21.653571 36.396428s26.951786 25.108929 71.410714 25.108929zm161.147619 0c26.26071 0 47.91429-8.523214 61.275-30.867857l-29.48571-14.742857c-9.90536 10.596428-15.66429 13.130357-28.79465 13.130357-10.36607 0-25.56964-6.219643-25.56964-24.417857h85.69286c.23035-1.382143.23035-3.916072.23035-5.528572 0-41.4642854-27.4125-62.6571426-63.34821-62.6571426-35.70536 0-64.960715 28.1035716-64.960715 62.6571426 0 34.323215 29.255355 62.426786 64.960715 62.426786zm23.49643-79.473214h-44.91964c.69107-10.826786 8.52321-19.119643 22.575-19.119643 11.97857 0 20.50178 6.680357 22.34464 19.119643zm112.08154 76.017857v-62.196429c0-2.994643 2.99465-23.957143 24.1875-23.957143 13.59108 0 21.19286 6.45 21.19286 6.45l17.04643-34.553571s-10.59643-7.3714286-25.8-7.3714286c-23.26607 0-36.16607 20.5017857-36.16607 20.5017857h-.46072v-17.0464285h-40.77321v118.1732144zm159.30477 0 63.34821-118.1732144h-48.375l-28.79464 64.2696424-28.79465-64.2696424h-48.375l63.34822 118.1732144zm106.32261-142.8214287c13.36072 0 24.1875-10.8267857 24.1875-24.1875s-10.82678-24.18750001-24.1875-24.18750001c-13.36071 0-24.1875 10.82678571-24.1875 24.18750001s10.82679 24.1875 24.1875 24.1875zm19.81072 142.8214287v-118.1732144h-40.77322v118.1732144zm98.49047 3.455357c26.26072 0 39.62143-10.596429 39.62143-10.596429l-13.82143-28.333928s-7.60178 5.528571-19.81071 5.528571c-15.43393 0-28.10357-12.9-28.10357-29.255357 0-16.125 12.66964-29.025 28.10357-29.025 12.20893 0 19.81071 5.528572 19.81071 5.528572l13.82143-27.8732147s-13.36071-11.0571429-39.62143-11.0571429c-34.32321 0-65.42142 28.1035716-65.42142 62.8874996 0 34.553572 31.32857 62.196429 65.42142 62.196429zm125.44227 0c26.26071 0 47.91428-8.523214 61.275-30.867857l-29.48572-14.742857c-9.90536 10.596428-15.66428 13.130357-28.79464 13.130357-10.36607 0-25.56964-6.219643-25.56964-24.417857h85.69285c.23036-1.382143.23036-3.916072.23036-5.528572 0-41.4642854-27.4125-62.6571426-63.34821-62.6571426-35.70536 0-64.96072 28.1035716-64.96072 62.6571426 0 34.323215 29.25536 62.426786 64.96072 62.426786zm23.49642-79.473214h-44.91964c.69107-10.826786 8.52322-19.119643 22.575-19.119643 11.97857 0 20.50179 6.680357 22.34464 19.119643zm180.6256 76.017857 8.98393-112.644643h1.15178l38.93036 111.492857h25.8l38.93036-111.492857h1.15178l8.98393 112.644643h43.30714l-17.04643-190.044643h-46.07142l-42.15536 109.65-42.15536-109.65h-46.07143l-17.04643 190.044643zm253.98154 3.455357c26.26072 0 47.91429-8.523214 61.275-30.867857l-29.48571-14.742857c-9.90536 10.596428-15.66429 13.130357-28.79464 13.130357-10.36607 0-25.56965-6.219643-25.56965-24.417857h85.69286c.23036-1.382143.23036-3.916072.23036-5.528572 0-41.4642854-27.4125-62.6571426-63.34822-62.6571426-35.70535 0-64.96071 28.1035716-64.96071 62.6571426 0 34.323215 29.25536 62.426786 64.96071 62.426786zm23.49643-79.473214h-44.91964c.69107-10.826786 8.52321-19.119643 22.575-19.119643 11.97857 0 20.50179 6.680357 22.34464 19.119643zm107.93512 79.473214c24.1875 0 55.97679-5.528571 55.97679-40.3125 0-24.1875-20.27143-32.941071-35.93572-37.778571-10.13571-3.225-18.42857-5.067858-18.42857-11.2875 0-5.528572 3.68572-7.141072 12.66964-7.141072 12.43929 0 26.26072 7.371429 26.26072 7.371429l13.36071-26.7214289s-16.81607-9.2142857-39.62143-9.2142857c-31.09821 0-51.6 13.8214286-51.6 38.0089286 0 17.7375 11.97858 26.030357 23.95715 32.25 13.36071 6.910714 26.26071 7.601786 26.26071 16.125 0 7.832143-6.91071 8.523214-12.66964 8.523214-13.13036 0-29.25536-13.591071-29.25536-13.591071l-16.58571 27.873214s17.04643 15.894643 45.61071 15.894643zm129.81905-3.455357v-66.803572c0-11.748214 11.97857-23.035714 24.1875-23.035714 13.13035 0 21.19285 11.2875 21.19285 23.035714v66.803572h40.77322v-77.860714c0-32.9410719-30.17679-43.7678576-51.83036-43.7678576-12.9 0-24.64821 6.6803572-33.8625 15.8946429h-.46071v-92.3732143h-40.77322v198.107143z" fill="#1128a9"/></svg>