<?xml version="1.0" encoding="UTF-8"?>
<svg width="4448px" height="1300px" viewBox="0 0 4448 1300" version="1.1" xmlns="http://www.w3.org/2000/svg" xmlns:xlink="http://www.w3.org/1999/xlink">
    <title>logo full</title>
    <defs>
        <polygon id="path-1" points="0.314060448 255.102725 437.707741 509.628627 872.974293 253.154869 437.707741 0.576824352"></polygon>
    </defs>
    <g id="logo-full" stroke="none" stroke-width="1" fill="none" fill-rule="evenodd">
        <g id="mesh-logo" transform="translate(199.000000, 120.000000)">
            <g id="dot-grid" transform="translate(67.695992, 709.009532)" fill="#B6E2D6" fill-rule="nonzero" stroke="#FFFFFF" stroke-width="4">
                <ellipse id="Oval-9" cx="65.110338" cy="81.3986351" rx="62.9622269" ry="33.7292248"></ellipse>
                <ellipse id="Oval-9" cx="389.921473" cy="276.277196" rx="62.9622269" ry="33.7292248"></ellipse>
                <ellipse id="Oval-9" cx="714.732607" cy="81.3905149" rx="62.9622269" ry="33.7292248"></ellipse>
                <ellipse id="Oval-9" cx="224.267794" cy="175.593864" rx="62.9622269" ry="33.7292248"></ellipse>
                <ellipse id="Oval-9" cx="555.575151" cy="175.585744" rx="62.9622269" ry="33.7292248"></ellipse>
                <ellipse id="Oval-9" cx="389.921473" cy="113.871628" rx="62.9622269" ry="33.7292248"></ellipse>
                <ellipse id="Oval-9" cx="224.267794" cy="35.9250763" rx="62.9622269" ry="33.7292248"></ellipse>
                <ellipse id="Oval-9" cx="555.575151" cy="35.916956" rx="62.9622269" ry="33.7292248"></ellipse>
            </g>
            <polygon id="Path-8" fill="#1128A9" fill-rule="nonzero" points="18.494482 635.525784 455.888163 890.051685 891.154714 633.577927 455.888163 380.999883"></polygon>
            <g id="mesh" transform="translate(18.180422, 250.000060)">
                <polygon id="Path-8" fill="#87E3CB" fill-rule="nonzero" points="0.314060448 255.102725 437.707741 509.628627 872.974293 253.154869 437.707741 0.576824352"></polygon>
                <mask id="mask-2" fill="white">
                    <use xlink:href="#path-1"></use>
                </mask>
                <use id="Path-8" fill="#C8FCEE" fill-rule="nonzero" xlink:href="#path-1"></use>
                <line x1="-274.472506" y1="440.043045" x2="1079.55576" y2="-354.322605" id="Path-2" stroke="#6ED3B9" stroke-width="45" fill-rule="nonzero" mask="url(#mask-2)"></line>
                <line x1="-313.429146" y1="618.430822" x2="1040.59912" y2="-175.934828" id="Path-2" stroke="#6ED3B9" stroke-width="45" fill-rule="nonzero" mask="url(#mask-2)"></line>
                <line x1="37.4001492" y1="564.914489" x2="1391.42842" y2="-229.451161" id="Path-2" stroke="#6ED3B9" stroke-width="45" fill-rule="nonzero" mask="url(#mask-2)"></line>
                <line x1="29.6199799" y1="731.409748" x2="1383.64825" y2="-62.9559023" id="Path-2" stroke="#6ED3B9" stroke-width="45" fill-rule="nonzero" mask="url(#mask-2)"></line>
                <line x1="203.895408" y1="790.87234" x2="1557.92367" y2="-3.49330984" id="Path-2" stroke="#6ED3B9" stroke-width="45" fill-rule="nonzero" mask="url(#mask-2)"></line>
                <line x1="554.724703" y1="737.356007" x2="1908.75297" y2="-57.009643" id="Path-2" stroke="#6ED3B9" stroke-width="45" fill-rule="nonzero" mask="url(#mask-2)"></line>
                <line x1="548.778444" y1="903.851266" x2="1902.80671" y2="109.485616" id="Path-2" stroke="#6ED3B9" stroke-width="45" fill-rule="nonzero" mask="url(#mask-2)"></line>
                <g id="lines" mask="url(#mask-2)" fill-rule="nonzero" stroke="#6ED3B9" stroke-width="45">
                    <g transform="translate(806.249750, 227.587220) scale(-1, 1) translate(-806.249750, -227.587220) translate(-305.250250, -401.912780)" id="Path-2">
                        <line x1="6.54627103" y1="794.385751" x2="1360.57454" y2="0.020101099"></line>
                        <line x1="0.600011789" y1="972.773528" x2="1354.62828" y2="178.407878"></line>
                        <line x1="351.429307" y1="919.257195" x2="1705.45757" y2="124.891545"></line>
                        <line x1="345.483048" y1="1085.75245" x2="1699.51131" y2="291.386804"></line>
                        <line x1="517.924566" y1="1145.21505" x2="1871.95283" y2="350.849396"></line>
                        <line x1="868.753861" y1="1091.69871" x2="2222.78213" y2="297.333063"></line>
                        <line x1="862.807602" y1="1258.19397" x2="2216.83587" y2="463.828322"></line>
                    </g>
                </g>
            </g>
            <g id="shapes" transform="translate(129.637675, 68.695502)" fill-rule="nonzero">
                <polygon id="Path-4" fill="#1128A9" points="0.833910035 416.790392 0.833910035 62.3259453 265.83391 569.255762"></polygon>
                <polygon id="Path-26" fill="#569CF5" points="325.83391 438.925408 545.858629 312.468376 545.858629 0.656299551 325.83391 123.602441"></polygon>
                <g id="orange" transform="translate(414.362325, 140.925408)" fill="#FB8143">
                    <polygon id="Path-25" points="-2.14612124e-14 245.023614 178.007865 349.772512 178.007865 106.338847 -2.14612124e-14 -6.21320795e-13"></polygon>
                </g>
                <polygon id="Path-26" fill="#569CF5" style="mix-blend-mode: overlay;" points="325.83391 438.925408 545.858629 312.468376 545.858629 0.656299551 325.83391 123.602441"></polygon>
            </g>
        </g>
        <path d="M1569.4397,743.792857 C1582.72363,743.792857 1595.16292,741.258929 1606.75756,736.191071 C1618.3522,731.123214 1628.52631,724.078125 1637.27988,715.055804 C1646.03345,706.033482 1652.88658,695.552232 1657.83926,683.612054 C1662.79193,671.671875 1665.26827,658.867857 1665.26827,645.2 C1665.26827,631.455357 1662.79193,618.632143 1657.83926,606.730357 C1652.88658,594.828571 1646.03345,584.366518 1637.27988,575.344196 C1628.52631,566.321875 1618.3522,559.276786 1606.75756,554.208929 C1595.16292,549.141071 1582.72363,546.607143 1569.4397,546.607143 C1556.15577,546.607143 1543.71649,549.141071 1532.12185,554.208929 C1520.5272,559.276786 1510.3531,566.321875 1501.59952,575.344196 C1492.84595,584.366518 1485.99283,594.828571 1481.04015,606.730357 C1476.08747,618.632143 1473.61113,631.455357 1473.61113,645.2 C1473.61113,658.867857 1476.08747,671.671875 1481.04015,683.612054 C1485.99283,695.552232 1492.84595,706.033482 1501.59952,715.055804 C1510.3531,724.078125 1520.5272,731.123214 1532.12185,736.191071 C1543.71649,741.258929 1556.15577,743.792857 1569.4397,743.792857 Z M1569.4397,714.767857 C1560.45577,714.767857 1552.10533,713.020982 1544.38836,709.527232 C1536.6714,706.033482 1529.95265,701.157589 1524.23211,694.899554 C1518.51158,688.641518 1514.0772,681.289286 1510.92899,672.842857 C1507.78077,664.396429 1506.20667,655.182143 1506.20667,645.2 C1506.20667,635.217857 1507.78077,626.003571 1510.92899,617.557143 C1514.0772,609.110714 1518.51158,601.758482 1524.23211,595.500446 C1529.95265,589.242411 1536.6714,584.366518 1544.38836,580.872768 C1552.10533,577.379018 1560.45577,575.632143 1569.4397,575.632143 C1578.50042,575.632143 1586.88926,577.379018 1594.60622,580.872768 C1602.32318,584.366518 1609.04193,589.242411 1614.76247,595.500446 C1620.48301,601.758482 1624.91738,609.110714 1628.0656,617.557143 C1631.21381,626.003571 1632.78792,635.217857 1632.78792,645.2 C1632.78792,655.182143 1631.21381,664.396429 1628.0656,672.842857 C1624.91738,681.289286 1620.48301,688.641518 1614.76247,694.899554 C1609.04193,701.157589 1602.32318,706.033482 1594.60622,709.527232 C1586.88926,713.020982 1578.50042,714.767857 1569.4397,714.767857 Z M1743.70522,800 L1743.70522,721.217857 C1748.84986,728.358929 1755.26147,733.906696 1762.94004,737.861161 C1770.61861,741.815625 1778.91147,743.792857 1787.81861,743.792857 C1798.95254,743.792857 1808.91548,741.047768 1817.70745,735.557589 C1826.49941,730.067411 1833.44852,722.6 1838.55477,713.155357 C1843.66102,703.710714 1846.21415,693.0375 1846.21415,681.135714 C1846.21415,669.080357 1843.64182,658.349554 1838.49718,648.943304 C1833.35254,639.537054 1826.34584,632.108036 1817.47709,626.65625 C1808.60834,621.204464 1798.49182,618.478571 1787.12754,618.478571 C1778.14361,618.478571 1769.85075,620.379018 1762.24897,624.179911 C1754.64718,627.980804 1748.46593,633.298214 1743.70522,640.132143 L1743.70522,640.132143 L1743.70522,622.164286 L1715.02575,622.164286 L1715.02575,800 L1743.70522,800 Z M1779.64093,719.259821 C1772.57665,719.259821 1766.26102,717.628125 1760.69406,714.364732 C1755.12709,711.101339 1750.7695,706.590179 1747.62129,700.83125 C1744.47307,695.072321 1742.89897,688.507143 1742.89897,681.135714 C1742.89897,673.764286 1744.49227,667.199107 1747.67888,661.440179 C1750.86548,655.68125 1755.22307,651.170089 1760.75165,647.906696 C1766.28022,644.643304 1772.57665,643.011607 1779.64093,643.011607 C1786.70522,643.011607 1792.96325,644.643304 1798.41504,647.906696 C1803.86682,651.170089 1808.18602,655.700446 1811.37263,661.497768 C1814.55923,667.295089 1816.15254,673.879464 1816.15254,681.250893 C1816.15254,688.622321 1814.57843,695.168304 1811.43022,700.888839 C1808.282,706.609375 1803.96281,711.101339 1798.47263,714.364732 C1792.98245,717.628125 1786.70522,719.259821 1779.64093,719.259821 Z M1950.77433,743.792857 C1962.98325,743.792857 1974.05959,741.162946 1984.00334,735.903125 C1993.94709,730.643304 2001.72165,723.329464 2007.327,713.961607 L2007.327,713.961607 L1986.47968,703.25 C1981.94933,709.1625 1976.90066,713.558482 1971.3337,716.437946 C1965.76674,719.317411 1959.41272,720.757143 1952.27165,720.757143 C1944.74665,720.757143 1938.08549,719.240625 1932.28816,716.207589 C1926.49084,713.174554 1921.97968,708.951339 1918.75468,703.537946 C1915.52968,698.124554 1913.91718,691.847321 1913.91718,684.70625 L1913.91718,684.70625 L2009.97611,684.70625 C2010.20647,683.170536 2010.36004,682.076339 2010.43683,681.423661 C2010.51361,680.770982 2010.552,679.945536 2010.552,678.947321 C2010.552,666.891964 2007.96049,656.333929 2002.77745,647.273214 C1997.59441,638.2125 1990.37656,631.148214 1981.12388,626.080357 C1971.8712,621.0125 1961.102,618.478571 1948.81629,618.478571 C1939.83236,618.478571 1931.46272,620.091071 1923.70736,623.316071 C1915.952,626.541071 1909.15647,631.033036 1903.32075,636.791964 C1897.48504,642.550893 1892.91629,649.23125 1889.6145,656.833036 C1886.31272,664.434821 1884.66183,672.6125 1884.66183,681.366071 C1884.66183,693.191071 1887.56049,703.825893 1893.35781,713.270536 C1899.15513,722.715179 1907.02566,730.163393 1916.96941,735.615179 C1926.91316,741.066964 1938.18147,743.792857 1950.77433,743.792857 Z M1982.1029,666.738393 L1915.18415,666.738393 C1915.952,661.286607 1917.83325,656.602679 1920.8279,652.686607 C1923.82254,648.770536 1927.70022,645.7375 1932.46093,643.5875 C1937.22165,641.4375 1942.63504,640.3625 1948.70111,640.3625 C1954.46004,640.3625 1959.68147,641.456696 1964.3654,643.645089 C1969.04933,645.833482 1972.927,648.885714 1975.99843,652.801786 C1979.06986,656.717857 1981.10468,661.363393 1982.1029,666.738393 L1982.1029,666.738393 Z M2086.19458,740.107143 L2086.19458,667.775 C2086.19458,662.860714 2087.34636,658.387946 2089.64993,654.356696 C2091.9535,650.325446 2095.25529,647.100446 2099.55529,644.681696 C2103.85529,642.262946 2108.96154,641.053571 2114.87404,641.053571 C2123.47404,641.053571 2130.21199,643.721875 2135.08788,649.058482 C2139.96377,654.395089 2142.40172,661.977679 2142.40172,671.80625 L2142.40172,671.80625 L2142.40172,740.107143 L2171.08118,740.107143 L2171.08118,665.816964 C2171.08118,656.141964 2169.19993,647.772321 2165.43743,640.708036 C2161.67493,633.64375 2156.39591,628.172768 2149.60038,624.295089 C2142.80484,620.417411 2134.87672,618.478571 2125.816,618.478571 C2117.06243,618.478571 2109.28788,620.148661 2102.49234,623.488839 C2095.69681,626.829018 2090.26422,631.109821 2086.19458,636.33125 L2086.19458,636.33125 L2086.19458,622.164286 L2057.51511,622.164286 L2057.51511,740.107143 L2086.19458,740.107143 Z M2354.39584,743.5625 C2391.48334,743.5625 2426.03691,727.667857 2426.03691,682.2875 C2426.03691,657.408929 2402.77084,639.441071 2381.57798,630.457143 C2359.92441,621.242857 2341.95656,613.641071 2341.95656,603.044643 C2341.95656,592.678571 2349.7887,585.998214 2364.53156,585.998214 C2384.11191,585.998214 2403.0012,599.128571 2403.0012,599.128571 L2420.50834,564.575 C2420.50834,564.575 2396.09048,546.607143 2361.53691,546.607143 C2330.89941,546.607143 2299.57084,569.182143 2299.57084,604.657143 C2299.57084,624.467857 2312.93156,642.205357 2335.73691,653.492857 C2358.31191,664.780357 2378.58334,671 2378.58334,684.821429 C2378.58334,702.558929 2360.61548,703.480357 2351.17084,703.480357 C2329.97798,703.480357 2304.6387,682.057143 2304.6387,682.057143 L2282.98513,718.453571 C2282.98513,718.453571 2309.93691,743.5625 2354.39584,743.5625 Z M2515.54346,743.5625 C2541.80417,743.5625 2563.45775,735.039286 2576.81846,712.694643 L2547.33275,697.951786 C2537.42739,708.548214 2531.66846,711.082143 2518.5381,711.082143 C2508.17203,711.082143 2492.96846,704.8625 2492.96846,686.664286 L2578.66132,686.664286 C2578.89167,685.282143 2578.89167,682.748214 2578.89167,681.135714 C2578.89167,639.671429 2551.47917,618.478571 2515.54346,618.478571 C2479.8381,618.478571 2450.58275,646.582143 2450.58275,681.135714 C2450.58275,715.458929 2479.8381,743.5625 2515.54346,743.5625 Z M2539.03989,664.089286 L2494.12025,664.089286 C2494.81132,653.2625 2502.64346,644.969643 2516.69525,644.969643 C2528.67382,644.969643 2537.19703,651.65 2539.03989,664.089286 Z M2651.12144,740.107143 L2651.12144,677.910714 C2651.12144,674.916071 2654.11608,653.953571 2675.30894,653.953571 C2688.90001,653.953571 2696.50179,660.403571 2696.50179,660.403571 L2713.54822,625.85 C2713.54822,625.85 2702.95179,618.478571 2687.74822,618.478571 C2664.48215,618.478571 2651.58215,638.980357 2651.58215,638.980357 L2651.12144,638.980357 L2651.12144,621.933929 L2610.34822,621.933929 L2610.34822,740.107143 L2651.12144,740.107143 Z M2810.4262,740.107143 L2873.77441,621.933929 L2825.39941,621.933929 L2796.60477,686.203571 L2767.81013,621.933929 L2719.43513,621.933929 L2782.78334,740.107143 L2810.4262,740.107143 Z M2916.74882,597.285714 C2930.10953,597.285714 2940.93632,586.458929 2940.93632,573.098214 C2940.93632,559.7375 2930.10953,548.910714 2916.74882,548.910714 C2903.3881,548.910714 2892.56132,559.7375 2892.56132,573.098214 C2892.56132,586.458929 2903.3881,597.285714 2916.74882,597.285714 Z M2936.55953,740.107143 L2936.55953,621.933929 L2895.78632,621.933929 L2895.78632,740.107143 L2936.55953,740.107143 Z M3035.05,743.5625 C3061.31072,743.5625 3074.67143,732.966071 3074.67143,732.966071 L3060.85,704.632143 C3060.85,704.632143 3053.24822,710.160714 3041.03929,710.160714 C3025.60536,710.160714 3012.93572,697.260714 3012.93572,680.905357 C3012.93572,664.780357 3025.60536,651.880357 3041.03929,651.880357 C3053.24822,651.880357 3060.85,657.408929 3060.85,657.408929 L3074.67143,629.535714 C3074.67143,629.535714 3061.31072,618.478571 3035.05,618.478571 C3000.72679,618.478571 2969.62858,646.582143 2969.62858,681.366071 C2969.62858,715.919643 3000.95715,743.5625 3035.05,743.5625 Z M3160.49227,743.5625 C3186.75298,743.5625 3208.40655,735.039286 3221.76727,712.694643 L3192.28155,697.951786 C3182.37619,708.548214 3176.61727,711.082143 3163.48691,711.082143 C3153.12084,711.082143 3137.91727,704.8625 3137.91727,686.664286 L3223.61012,686.664286 C3223.84048,685.282143 3223.84048,682.748214 3223.84048,681.135714 C3223.84048,639.671429 3196.42798,618.478571 3160.49227,618.478571 C3124.78691,618.478571 3095.53155,646.582143 3095.53155,681.135714 C3095.53155,715.458929 3124.78691,743.5625 3160.49227,743.5625 Z M3183.98869,664.089286 L3139.06905,664.089286 C3139.76012,653.2625 3147.59227,644.969643 3161.64405,644.969643 C3173.62262,644.969643 3182.14584,651.65 3183.98869,664.089286 Z M3364.61429,740.107143 L3373.59822,627.4625 L3374.75,627.4625 L3413.68036,738.955357 L3439.48036,738.955357 L3478.41072,627.4625 L3479.5625,627.4625 L3488.54643,740.107143 L3531.85357,740.107143 L3514.80715,550.0625 L3468.73572,550.0625 L3426.58036,659.7125 L3384.425,550.0625 L3338.35357,550.0625 L3321.30715,740.107143 L3364.61429,740.107143 Z M3618.59583,743.5625 C3644.85655,743.5625 3666.51012,735.039286 3679.87083,712.694643 L3650.38512,697.951786 C3640.47976,708.548214 3634.72083,711.082143 3621.59048,711.082143 C3611.22441,711.082143 3596.02083,704.8625 3596.02083,686.664286 L3681.71369,686.664286 C3681.94405,685.282143 3681.94405,682.748214 3681.94405,681.135714 C3681.94405,639.671429 3654.53155,618.478571 3618.59583,618.478571 C3582.89048,618.478571 3553.63512,646.582143 3553.63512,681.135714 C3553.63512,715.458929 3582.89048,743.5625 3618.59583,743.5625 Z M3642.09226,664.089286 L3597.17262,664.089286 C3597.86369,653.2625 3605.69583,644.969643 3619.74762,644.969643 C3631.72619,644.969643 3640.24941,651.65 3642.09226,664.089286 Z M3750.02738,743.5625 C3774.21488,743.5625 3806.00417,738.033929 3806.00417,703.25 C3806.00417,679.0625 3785.73274,670.308929 3770.06845,665.471429 C3759.93274,662.246429 3751.63988,660.403571 3751.63988,654.183929 C3751.63988,648.655357 3755.3256,647.042857 3764.30952,647.042857 C3776.74881,647.042857 3790.57024,654.414286 3790.57024,654.414286 L3803.93095,627.692857 C3803.93095,627.692857 3787.11488,618.478571 3764.30952,618.478571 C3733.21131,618.478571 3712.70952,632.3 3712.70952,656.4875 C3712.70952,674.225 3724.6881,682.517857 3736.66667,688.7375 C3750.02738,695.648214 3762.92738,696.339286 3762.92738,704.8625 C3762.92738,712.694643 3756.01667,713.385714 3750.25774,713.385714 C3737.12738,713.385714 3721.00238,699.794643 3721.00238,699.794643 L3704.41667,727.667857 C3704.41667,727.667857 3721.4631,743.5625 3750.02738,743.5625 Z M3879.84643,740.107143 L3879.84643,673.303571 C3879.84643,661.555357 3891.825,650.267857 3904.03393,650.267857 C3917.16429,650.267857 3925.22679,661.555357 3925.22679,673.303571 L3925.22679,740.107143 L3966,740.107143 L3966,662.246429 C3966,629.305357 3935.82321,618.478571 3914.16964,618.478571 C3901.26964,618.478571 3889.52143,625.158929 3880.30714,634.373214 L3879.84643,634.373214 L3879.84643,542 L3839.07321,542 L3839.07321,740.107143 L3879.84643,740.107143 Z" id="OpenServiceMesh" fill="#1128A9" fill-rule="nonzero"></path>
    </g>
</svg>