<?xml version="1.0" encoding="UTF-8" standalone="no"?>
<!DOCTYPE svg PUBLIC "-//W3C//DTD SVG 1.1//EN"
 "http://www.w3.org/Graphics/SVG/1.1/DTD/svg11.dtd">
<!-- Generated by graphviz version 2.44.1 (20200629.0846)
 -->
<!-- Title: G Pages: 1 -->
<svg width="210pt" height="242pt"
 viewBox="0.00 0.00 210.29 242.00" xmlns="http://www.w3.org/2000/svg" xmlns:xlink="http://www.w3.org/1999/xlink">
<g id="graph0" class="graph" transform="scale(1 1) rotate(0) translate(4 238)">
<title>G</title>
<polygon fill="white" stroke="transparent" points="-4,4 -4,-238 206.29,-238 206.29,4 -4,4"/>
<g id="clust1" class="cluster">
<title>cluster0</title>
<polygon fill="none" stroke="black" points="38.1,-53 38.1,-181 168.1,-181 168.1,-53 38.1,-53"/>
<text text-anchor="middle" x="103.1" y="-165.8" font-family="Times,serif" font-size="14.00">bookstore</text>
</g>
<!-- bookbuyer -->
<g id="node1" class="node">
<title>bookbuyer</title>
<ellipse fill="none" stroke="black" cx="48.1" cy="-216" rx="48.19" ry="18"/>
<text text-anchor="middle" x="48.1" y="-212.3" font-family="Times,serif" font-size="14.00">bookbuyer</text>
</g>
<!-- b1 -->
<g id="node2" class="node">
<title>b1</title>
<ellipse fill="none" stroke="black" cx="103.1" cy="-132" rx="57.39" ry="18"/>
<text text-anchor="middle" x="103.1" y="-128.3" font-family="Times,serif" font-size="14.00">bookstore&#45;v1</text>
</g>
<!-- bookbuyer&#45;&gt;b1 -->
<g id="edge1" class="edge">
<title>bookbuyer&#45;&gt;b1</title>
<path fill="none" stroke="black" d="M59.23,-198.41C61.07,-195.65 63.07,-192.67 65.17,-189.54"/>
<polygon fill="black" stroke="black" points="68.24,-191.25 70.9,-181 62.43,-187.35 68.24,-191.25"/>
</g>
<!-- b2 -->
<g id="node4" class="node">
<title>b2</title>
<ellipse fill="none" stroke="black" cx="103.1" cy="-79" rx="57.39" ry="18"/>
<text text-anchor="middle" x="103.1" y="-75.3" font-family="Times,serif" font-size="14.00">bookstore&#45;v2</text>
</g>
<!-- b1&#45;&gt;b2 -->
<!-- bookthief -->
<g id="node3" class="node">
<title>bookthief</title>
<ellipse fill="none" stroke="black" cx="158.1" cy="-216" rx="44.39" ry="18"/>
<text text-anchor="middle" x="158.1" y="-212.3" font-family="Times,serif" font-size="14.00">bookthief</text>
</g>
<!-- bookthief&#45;&gt;b1 -->
<g id="edge2" class="edge">
<title>bookthief&#45;&gt;b1</title>
<path fill="none" stroke="black" d="M146.97,-198.41C145.12,-195.65 143.12,-192.67 141.02,-189.54"/>
<polygon fill="black" stroke="black" points="143.77,-187.35 135.29,-181 137.95,-191.25 143.77,-187.35"/>
</g>
<!-- bookwarehouse -->
<g id="node5" class="node">
<title>bookwarehouse</title>
<ellipse fill="none" stroke="black" cx="103.1" cy="-18" rx="65.79" ry="18"/>
<text text-anchor="middle" x="103.1" y="-14.3" font-family="Times,serif" font-size="14.00">bookwarehouse</text>
</g>
<!-- b2&#45;&gt;bookwarehouse -->
<g id="edge4" class="edge">
<title>b2&#45;&gt;bookwarehouse</title>
<path fill="none" stroke="black" d="M103.1,-53C103.1,-50.89 103.1,-48.74 103.1,-46.61"/>
<polygon fill="black" stroke="black" points="106.6,-46.23 103.1,-36.23 99.6,-46.23 106.6,-46.23"/>
</g>
</g>
</svg>
