<?xml version="1.0" encoding="UTF-8" standalone="no"?>
<!DOCTYPE svg PUBLIC "-//W3C//DTD SVG 1.1//EN"
 "http://www.w3.org/Graphics/SVG/1.1/DTD/svg11.dtd">
<!-- Generated by graphviz version 2.44.1 (20200629.0846)
 -->
<!-- Title: G Pages: 1 -->
<svg width="259pt" height="242pt"
 viewBox="0.00 0.00 259.35 242.00" xmlns="http://www.w3.org/2000/svg" xmlns:xlink="http://www.w3.org/1999/xlink">
<g id="graph0" class="graph" transform="scale(1 1) rotate(0) translate(4 238)">
<title>G</title>
<polygon fill="white" stroke="transparent" points="-4,4 -4,-238 255.35,-238 255.35,4 -4,4"/>
<g id="clust1" class="cluster">
<title>cluster0</title>
<polygon fill="none" stroke="black" points="8,-53 8,-181 138,-181 138,-53 8,-53"/>
<text text-anchor="middle" x="73" y="-165.8" font-family="Times,serif" font-size="14.00">bookstore</text>
</g>
<!-- bookbuyer -->
<g id="node1" class="node">
<title>bookbuyer</title>
<ellipse fill="none" stroke="black" cx="81" cy="-216" rx="48.19" ry="18"/>
<text text-anchor="middle" x="81" y="-212.3" font-family="Times,serif" font-size="14.00">bookbuyer</text>
</g>
<!-- b1 -->
<g id="node2" class="node">
<title>b1</title>
<ellipse fill="none" stroke="black" cx="73" cy="-132" rx="57.39" ry="18"/>
<text text-anchor="middle" x="73" y="-128.3" font-family="Times,serif" font-size="14.00">bookstore&#45;v1</text>
</g>
<!-- bookbuyer&#45;&gt;b1 -->
<g id="edge1" class="edge">
<title>bookbuyer&#45;&gt;b1</title>
<path fill="none" stroke="black" d="M79.34,-198.01C79.13,-195.86 78.91,-193.58 78.68,-191.2"/>
<polygon fill="black" stroke="black" points="82.14,-190.61 77.68,-181 75.17,-191.29 82.14,-190.61"/>
</g>
<!-- gh -->
<g id="node4" class="node">
<title>gh</title>
<ellipse fill="none" stroke="black" cx="200" cy="-132" rx="51.19" ry="18"/>
<text text-anchor="middle" x="200" y="-128.3" font-family="Times,serif" font-size="14.00">github.com</text>
</g>
<!-- bookbuyer&#45;&gt;gh -->
<g id="edge3" class="edge">
<title>bookbuyer&#45;&gt;gh</title>
<path fill="none" stroke="black" d="M108.36,-201.13C119.11,-195.33 131.39,-188.26 142,-181 153.13,-173.39 164.7,-164.12 174.56,-155.77"/>
<polygon fill="black" stroke="black" points="177.09,-158.2 182.38,-149.02 172.52,-152.9 177.09,-158.2"/>
</g>
<!-- b2 -->
<g id="node5" class="node">
<title>b2</title>
<ellipse fill="none" stroke="black" cx="73" cy="-79" rx="57.39" ry="18"/>
<text text-anchor="middle" x="73" y="-75.3" font-family="Times,serif" font-size="14.00">bookstore&#45;v2</text>
</g>
<!-- b1&#45;&gt;b2 -->
<!-- bookthief -->
<g id="node3" class="node">
<title>bookthief</title>
<ellipse fill="none" stroke="black" cx="192" cy="-216" rx="44.39" ry="18"/>
<text text-anchor="middle" x="192" y="-212.3" font-family="Times,serif" font-size="14.00">bookthief</text>
</g>
<!-- bookthief&#45;&gt;b1 -->
<g id="edge2" class="edge">
<title>bookthief&#45;&gt;b1</title>
<path fill="none" stroke="black" d="M169.34,-200.48C162.46,-196.02 154.75,-190.96 146.47,-185.38"/>
<polygon fill="black" stroke="black" points="148.24,-182.35 138,-179.63 144.3,-188.14 148.24,-182.35"/>
</g>
<!-- bookthief&#45;&gt;gh -->
<g id="edge4" class="edge">
<title>bookthief&#45;&gt;gh</title>
<path fill="none" stroke="black" d="M193.66,-198.01C194.71,-187.2 196.1,-172.95 197.31,-160.54"/>
<polygon fill="black" stroke="black" points="200.83,-160.54 198.32,-150.25 193.86,-159.86 200.83,-160.54"/>
</g>
<!-- bookwarehouse -->
<g id="node6" class="node">
<title>bookwarehouse</title>
<ellipse fill="none" stroke="black" cx="73" cy="-18" rx="65.79" ry="18"/>
<text text-anchor="middle" x="73" y="-14.3" font-family="Times,serif" font-size="14.00">bookwarehouse</text>
</g>
<!-- b2&#45;&gt;bookwarehouse -->
<g id="edge6" class="edge">
<title>b2&#45;&gt;bookwarehouse</title>
<path fill="none" stroke="black" d="M73,-53C73,-50.89 73,-48.74 73,-46.61"/>
<polygon fill="black" stroke="black" points="76.5,-46.23 73,-36.23 69.5,-46.23 76.5,-46.23"/>
</g>
</g>
</svg>
