<?xml version="1.0" encoding="UTF-8" standalone="no"?>
<!DOCTYPE svg PUBLIC "-//W3C//DTD SVG 1.1//EN"
 "http://www.w3.org/Graphics/SVG/1.1/DTD/svg11.dtd">
<!-- Generated by graphviz version 2.44.1 (20200629.0846)
 -->
<!-- Title: G Pages: 1 -->
<svg width="242pt" height="242pt"
 viewBox="0.00 0.00 242.10 242.00" xmlns="http://www.w3.org/2000/svg" xmlns:xlink="http://www.w3.org/1999/xlink">
<g id="graph0" class="graph" transform="scale(1 1) rotate(0) translate(4 238)">
<title>G</title>
<polygon fill="white" stroke="transparent" points="-4,4 -4,-238 238.1,-238 238.1,4 -4,4"/>
<g id="clust3" class="cluster">
<title>cluster0</title>
<polygon fill="none" stroke="black" points="96.1,-53 96.1,-181 226.1,-181 226.1,-53 96.1,-53"/>
<text text-anchor="middle" x="161.1" y="-165.8" font-family="Times,serif" font-size="14.00">bookstore</text>
</g>
<!-- gh -->
<g id="node1" class="node">
<title>gh</title>
<polygon fill="none" stroke="black" points="85.6,-150 6.6,-150 6.6,-114 85.6,-114 85.6,-150"/>
<text text-anchor="middle" x="46.1" y="-128.3" font-family="Times,serif" font-size="14.00">github.com</text>
</g>
<!-- bookbuyer -->
<g id="node2" class="node">
<title>bookbuyer</title>
<ellipse fill="none" stroke="black" cx="48.1" cy="-216" rx="48.19" ry="18"/>
<text text-anchor="middle" x="48.1" y="-212.3" font-family="Times,serif" font-size="14.00">bookbuyer</text>
</g>
<!-- bookbuyer&#45;&gt;gh -->
<g id="edge1" class="edge">
<title>bookbuyer&#45;&gt;gh</title>
<path fill="none" stroke="black" d="M47.67,-197.61C47.41,-186.77 47.06,-172.6 46.76,-160.29"/>
<polygon fill="black" stroke="black" points="50.26,-160 46.51,-150.08 43.26,-160.17 50.26,-160"/>
</g>
<!-- b1 -->
<g id="node4" class="node">
<title>b1</title>
<ellipse fill="none" stroke="black" cx="161.1" cy="-132" rx="57.39" ry="18"/>
<text text-anchor="middle" x="161.1" y="-128.3" font-family="Times,serif" font-size="14.00">bookstore&#45;v1</text>
</g>
<!-- bookbuyer&#45;&gt;b1 -->
<g id="edge3" class="edge">
<title>bookbuyer&#45;&gt;b1</title>
<path fill="none" stroke="black" d="M69.16,-199.78C74.86,-195.66 81.18,-191.09 87.72,-186.35"/>
<polygon fill="black" stroke="black" points="90.06,-188.97 96.1,-180.27 85.95,-183.31 90.06,-188.97"/>
</g>
<!-- bookthief -->
<g id="node3" class="node">
<title>bookthief</title>
<ellipse fill="none" stroke="black" cx="159.1" cy="-216" rx="44.39" ry="18"/>
<text text-anchor="middle" x="159.1" y="-212.3" font-family="Times,serif" font-size="14.00">bookthief</text>
</g>
<!-- bookthief&#45;&gt;gh -->
<g id="edge2" class="edge">
<title>bookthief&#45;&gt;gh</title>
<path fill="none" stroke="black" d="M129.49,-202.62C117.36,-196.89 103.52,-189.47 92.1,-181 83.2,-174.4 74.5,-166 67.11,-158.08"/>
<polygon fill="black" stroke="black" points="69.49,-155.49 60.2,-150.4 64.29,-160.17 69.49,-155.49"/>
</g>
<!-- bookthief&#45;&gt;b1 -->
<g id="edge4" class="edge">
<title>bookthief&#45;&gt;b1</title>
<path fill="none" stroke="black" d="M159.52,-197.61C159.57,-195.58 159.62,-193.43 159.68,-191.2"/>
<polygon fill="black" stroke="black" points="163.18,-191.08 159.93,-181 156.18,-190.91 163.18,-191.08"/>
</g>
<!-- b2 -->
<g id="node5" class="node">
<title>b2</title>
<ellipse fill="none" stroke="black" cx="161.1" cy="-79" rx="57.39" ry="18"/>
<text text-anchor="middle" x="161.1" y="-75.3" font-family="Times,serif" font-size="14.00">bookstore&#45;v2</text>
</g>
<!-- b1&#45;&gt;b2 -->
<!-- bookwarehouse -->
<g id="node6" class="node">
<title>bookwarehouse</title>
<ellipse fill="none" stroke="black" cx="161.1" cy="-18" rx="65.79" ry="18"/>
<text text-anchor="middle" x="161.1" y="-14.3" font-family="Times,serif" font-size="14.00">bookwarehouse</text>
</g>
<!-- b2&#45;&gt;bookwarehouse -->
<g id="edge6" class="edge">
<title>b2&#45;&gt;bookwarehouse</title>
<path fill="none" stroke="black" d="M161.1,-53C161.1,-50.89 161.1,-48.74 161.1,-46.61"/>
<polygon fill="black" stroke="black" points="164.6,-46.23 161.1,-36.23 157.6,-46.23 164.6,-46.23"/>
</g>
</g>
</svg>
