<?xml version="1.0" encoding="UTF-8" standalone="no"?>
<!DOCTYPE svg PUBLIC "-//W3C//DTD SVG 1.1//EN"
 "http://www.w3.org/Graphics/SVG/1.1/DTD/svg11.dtd">
<!-- Generated by graphviz version 2.49.0 (20210828.1703)
 -->
<!-- Title: G Pages: 1 -->
<svg width="246pt" height="295pt"
 viewBox="0.00 0.00 246.40 295.00" xmlns="http://www.w3.org/2000/svg" xmlns:xlink="http://www.w3.org/1999/xlink">
<g id="graph0" class="graph" transform="scale(1 1) rotate(0) translate(4 291)">
<title>G</title>
<polygon fill="white" stroke="transparent" points="-4,4 -4,-291 242.4,-291 242.4,4 -4,4"/>
<g id="clust3" class="cluster">
<title>cluster0</title>
<polygon fill="none" stroke="black" points="98.4,-106 98.4,-234 230.4,-234 230.4,-106 98.4,-106"/>
<text text-anchor="middle" x="164.4" y="-218.8" font-family="Times,serif" font-size="14.00">bookstore</text>
</g>
<!-- gh -->
<g id="node1" class="node">
<title>gh</title>
<polygon fill="none" stroke="black" points="88.4,-203 8.4,-203 8.4,-167 88.4,-167 88.4,-203"/>
<text text-anchor="middle" x="48.4" y="-181.3" font-family="Times,serif" font-size="14.00">github.com</text>
</g>
<!-- bookbuyer -->
<g id="node2" class="node">
<title>bookbuyer</title>
<ellipse fill="none" stroke="black" cx="49.4" cy="-269" rx="49.29" ry="18"/>
<text text-anchor="middle" x="49.4" y="-265.3" font-family="Times,serif" font-size="14.00">bookbuyer</text>
</g>
<!-- bookbuyer&#45;&gt;gh -->
<g id="edge1" class="edge">
<title>bookbuyer&#45;&gt;gh</title>
<path fill="none" stroke="black" d="M49.18,-250.61C49.05,-239.77 48.88,-225.6 48.73,-213.29"/>
<polygon fill="black" stroke="black" points="52.23,-213.04 48.6,-203.08 45.23,-213.13 52.23,-213.04"/>
</g>
<!-- b1 -->
<g id="node4" class="node">
<title>b1</title>
<ellipse fill="none" stroke="black" cx="164.4" cy="-185" rx="58.49" ry="18"/>
<text text-anchor="middle" x="164.4" y="-181.3" font-family="Times,serif" font-size="14.00">bookstore&#45;v1</text>
</g>
<!-- bookbuyer&#45;&gt;b1 -->
<g id="edge3" class="edge">
<title>bookbuyer&#45;&gt;b1</title>
<path fill="none" stroke="black" d="M70.92,-252.79C76.74,-248.67 83.19,-244.1 89.86,-239.36"/>
<polygon fill="black" stroke="black" points="92.28,-241.93 98.4,-233.29 88.22,-236.23 92.28,-241.93"/>
</g>
<!-- bookthief -->
<g id="node3" class="node">
<title>bookthief</title>
<ellipse fill="none" stroke="black" cx="162.4" cy="-269" rx="45.49" ry="18"/>
<text text-anchor="middle" x="162.4" y="-265.3" font-family="Times,serif" font-size="14.00">bookthief</text>
</g>
<!-- bookthief&#45;&gt;gh -->
<g id="edge2" class="edge">
<title>bookthief&#45;&gt;gh</title>
<path fill="none" stroke="black" d="M132,-255.53C119.77,-249.83 105.87,-242.46 94.4,-234 85.48,-227.43 76.78,-219.03 69.39,-211.11"/>
<polygon fill="black" stroke="black" points="71.77,-208.52 62.48,-203.43 66.56,-213.2 71.77,-208.52"/>
</g>
<!-- bookthief&#45;&gt;b1 -->
<g id="edge4" class="edge">
<title>bookthief&#45;&gt;b1</title>
<path fill="none" stroke="black" d="M162.82,-250.61C162.87,-248.58 162.92,-246.43 162.98,-244.2"/>
<polygon fill="black" stroke="black" points="166.48,-244.08 163.22,-234 159.48,-243.91 166.48,-244.08"/>
</g>
<!-- b2 -->
<g id="node5" class="node">
<title>b2</title>
<ellipse fill="none" stroke="black" cx="164.4" cy="-132" rx="58.49" ry="18"/>
<text text-anchor="middle" x="164.4" y="-128.3" font-family="Times,serif" font-size="14.00">bookstore&#45;v2</text>
</g>
<!-- b1&#45;&gt;b2 -->
<!-- bookwarehouse -->
<g id="node6" class="node">
<title>bookwarehouse</title>
<ellipse fill="none" stroke="black" cx="164.4" cy="-71" rx="67.69" ry="18"/>
<text text-anchor="middle" x="164.4" y="-67.3" font-family="Times,serif" font-size="14.00">bookwarehouse</text>
</g>
<!-- b2&#45;&gt;bookwarehouse -->
<g id="edge6" class="edge">
<title>b2&#45;&gt;bookwarehouse</title>
<path fill="none" stroke="black" d="M164.4,-106C164.4,-103.89 164.4,-101.74 164.4,-99.61"/>
<polygon fill="black" stroke="black" points="167.9,-99.23 164.4,-89.23 160.9,-99.23 167.9,-99.23"/>
</g>
<!-- MySQL -->
<g id="node7" class="node">
<title>MySQL</title>
<ellipse fill="none" stroke="black" cx="164.4" cy="-18" rx="40.09" ry="18"/>
<text text-anchor="middle" x="164.4" y="-14.3" font-family="Times,serif" font-size="14.00">MySQL</text>
</g>
<!-- bookwarehouse&#45;&gt;MySQL -->
<g id="edge7" class="edge">
<title>bookwarehouse&#45;&gt;MySQL</title>
<path fill="none" stroke="black" d="M164.4,-52.73C164.4,-50.66 164.4,-48.5 164.4,-46.32"/>
<polygon fill="black" stroke="black" points="167.9,-46.25 164.4,-36.25 160.9,-46.25 167.9,-46.25"/>
</g>
</g>
</svg>
